<?xml version="1.0" encoding="utf-8"?>
<!-- Generator: Adobe Illustrator 16.0.0, SVG Export Plug-In . SVG Version: 6.00 Build 0)  -->
<!DOCTYPE svg PUBLIC "-//W3C//DTD SVG 1.1//EN" "http://www.w3.org/Graphics/SVG/1.1/DTD/svg11.dtd">
<svg version="1.1" id="Capa_1" xmlns="http://www.w3.org/2000/svg" xmlns:xlink="http://www.w3.org/1999/xlink" x="0px" y="0px"
	 width="60px" height="60px" viewBox="0 0 60 60" enable-background="new 0 0 60 60" xml:space="preserve">
<g>
	<path fill="#FFFFFF" d="M0,29.998C0,46.571,13.431,60,29.996,60C46.563,60,60,46.571,60,29.998C60,13.436,46.563,0,29.996,0
		C13.431,0,0,13.436,0,29.998z"/>
	<g>
		<circle fill="#213B3F" cx="30.193" cy="30" r="29.198"/>
		<g>
			<defs>
				<polygon id="SVGID_1_" points="13.254,12.132 47.574,28.456 47.574,45.949 13.589,45.949 				"/>
			</defs>
			<clipPath id="SVGID_2_">
				<use xlink:href="#SVGID_1_"  overflow="visible"/>
			</clipPath>
			<g clip-path="url(#SVGID_2_)">
				<path fill="#EFC062" d="M20.251,45.949v-35.32c0-1.378-1.493-2.495-3.331-2.495c-1.842,0-3.332,1.117-3.332,2.495v35.32H20.251z
					"/>
				<path fill="#EFC062" d="M29.137,45.949V15.124c0-1.38-1.492-2.497-3.331-2.497c-1.84,0-3.332,1.117-3.332,2.497v30.826H29.137z"
					/>
				<path fill="#EFC062" d="M38.023,45.949V19.617c0-1.38-1.493-2.497-3.333-2.497s-3.331,1.117-3.331,2.497v26.333H38.023z"/>
				<path fill="#EFC062" d="M46.909,45.949V25.107c0-1.38-1.492-2.495-3.333-2.495c-1.839,0-3.331,1.115-3.331,2.495v20.842H46.909z
					"/>
			</g>
		</g>
		<circle fill="#8BC7D1" cx="42.277" cy="41.966" r="8.936"/>
		<g>
			<g>
				<path fill="#FFFFFF" d="M36.627,45.451c1.254,1.87,3.332,4.054,5.389,1.751c1.045-1.17,1.772-2.71,2.575-4.045
					c1.002-1.668,1.979-3.349,2.995-5.008c1.113-1.818-1.738-3.473-2.846-1.664c-1.117,1.824-2.193,3.673-3.296,5.506
					c-0.53,0.883-1.059,1.767-1.607,2.638c-0.619,0.982-0.155-0.241,0.556,0.367c-0.379-0.324-0.646-0.801-0.92-1.209
					C38.296,42.031,35.439,43.68,36.627,45.451L36.627,45.451z"/>
			</g>
		</g>
	</g>
</g>
</svg>
