<?xml version="1.0" encoding="utf-8"?>
<!-- Generator: Adobe Illustrator 16.0.0, SVG Export Plug-In . SVG Version: 6.00 Build 0)  -->
<!DOCTYPE svg PUBLIC "-//W3C//DTD SVG 1.1//EN" "http://www.w3.org/Graphics/SVG/1.1/DTD/svg11.dtd">
<svg version="1.1" id="Capa_1" xmlns="http://www.w3.org/2000/svg" xmlns:xlink="http://www.w3.org/1999/xlink" x="0px" y="0px"
	 width="60px" height="60px" viewBox="0 0 60 60" enable-background="new 0 0 60 60" xml:space="preserve">
<path fill="#FFFFFF" d="M30.67,57.784c-0.542,0-0.988-0.435-1-0.979c-0.011-0.552,0.427-1.009,0.979-1.021
	c1.344-0.027,2.691-0.159,4.006-0.391c0.544-0.09,1.062,0.269,1.158,0.812c0.095,0.544-0.269,1.062-0.812,1.158
	c-1.414,0.248-2.864,0.39-4.311,0.42C30.685,57.784,30.678,57.784,30.67,57.784z M25.467,57.389c-0.057,0-0.114-0.005-0.172-0.015
	c-1.422-0.247-2.834-0.608-4.199-1.073c-0.523-0.178-0.802-0.746-0.625-1.269c0.179-0.522,0.748-0.806,1.269-0.624
	c1.267,0.432,2.578,0.766,3.896,0.995c0.544,0.095,0.909,0.612,0.814,1.156C26.367,57.046,25.944,57.389,25.467,57.389z
	 M39.855,55.978c-0.401,0-0.779-0.243-0.933-0.64c-0.199-0.515,0.057-1.094,0.572-1.293c1.245-0.481,2.464-1.066,3.624-1.739
	c0.48-0.276,1.091-0.113,1.367,0.363c0.277,0.479,0.114,1.09-0.363,1.367c-1.251,0.725-2.565,1.355-3.907,1.874
	C40.098,55.956,39.976,55.978,39.855,55.978z M16.663,54.198c-0.169,0-0.341-0.043-0.499-0.134c-1.249-0.72-2.451-1.544-3.576-2.448
	c-0.43-0.347-0.499-0.976-0.152-1.406c0.347-0.43,0.976-0.498,1.406-0.152c1.044,0.841,2.162,1.605,3.321,2.274
	c0.479,0.276,0.643,0.888,0.367,1.366C17.345,54.019,17.009,54.198,16.663,54.198z M47.864,51.129c-0.278,0-0.555-0.115-0.753-0.342
	c-0.363-0.416-0.321-1.048,0.095-1.411c1.01-0.883,1.957-1.85,2.817-2.874c0.354-0.423,0.984-0.479,1.408-0.123
	c0.423,0.354,0.479,0.985,0.123,1.408c-0.925,1.104-1.945,2.145-3.032,3.095C48.333,51.048,48.099,51.129,47.864,51.129z
	 M9.483,48.187c-0.285,0-0.567-0.121-0.765-0.355c-0.93-1.103-1.78-2.286-2.528-3.519c-0.287-0.472-0.136-1.087,0.336-1.373
	c0.472-0.287,1.087-0.137,1.374,0.336c0.694,1.144,1.484,2.242,2.347,3.267c0.356,0.422,0.302,1.053-0.12,1.409
	C9.94,48.109,9.711,48.187,9.483,48.187z M53.743,43.842c-0.163,0-0.329-0.04-0.482-0.125c-0.483-0.267-0.659-0.875-0.392-1.358
	c0.648-1.174,1.209-2.406,1.666-3.663c0.188-0.519,0.76-0.785,1.281-0.598c0.519,0.188,0.787,0.762,0.598,1.281
	c-0.492,1.354-1.096,2.682-1.795,3.946C54.437,43.655,54.096,43.842,53.743,43.842z M4.782,40.091c-0.408,0-0.791-0.251-0.939-0.656
	c-0.497-1.355-0.889-2.76-1.168-4.174c-0.107-0.542,0.246-1.067,0.788-1.175c0.543-0.104,1.068,0.246,1.174,0.788
	c0.259,1.312,0.624,2.615,1.084,3.873c0.19,0.519-0.077,1.093-0.595,1.283C5.012,40.071,4.896,40.091,4.782,40.091z M56.773,34.98
	c-0.051,0-0.102-0.004-0.154-0.012c-0.545-0.084-0.919-0.596-0.835-1.142c0.204-1.319,0.308-2.669,0.308-4.012V29.7
	c0-0.552,0.447-1,1-1s1,0.448,1,1v0.115c0,1.445-0.111,2.898-0.331,4.319C57.685,34.627,57.259,34.98,56.773,34.98z M3.145,30.844
	c-0.552,0-1-0.419-1-0.971v-0.058c0-1.428,0.108-2.86,0.322-4.259c0.083-0.546,0.593-0.92,1.14-0.838
	c0.546,0.083,0.921,0.594,0.838,1.14c-0.199,1.299-0.299,2.631-0.299,3.958C4.145,30.367,3.697,30.844,3.145,30.844z M56.569,25.507
	c-0.467,0-0.885-0.329-0.979-0.804c-0.264-1.315-0.631-2.618-1.093-3.872c-0.19-0.518,0.074-1.093,0.593-1.284
	c0.519-0.19,1.092,0.074,1.284,0.593c0.497,1.351,0.894,2.754,1.177,4.17c0.108,0.542-0.243,1.068-0.784,1.177
	C56.7,25.5,56.635,25.507,56.569,25.507z M4.743,21.648c-0.113,0-0.228-0.02-0.34-0.06c-0.52-0.188-0.788-0.761-0.601-1.28
	c0.49-1.356,1.091-2.685,1.787-3.951c0.266-0.484,0.873-0.661,1.358-0.395c0.484,0.266,0.661,0.875,0.395,1.358
	c-0.646,1.174-1.204,2.408-1.659,3.667C5.536,21.395,5.152,21.648,4.743,21.648z M53.162,16.787c-0.337,0-0.666-0.17-0.854-0.479
	c-0.695-1.14-1.487-2.237-2.354-3.262c-0.356-0.422-0.304-1.053,0.118-1.41c0.421-0.356,1.053-0.304,1.409,0.118
	c0.934,1.104,1.786,2.286,2.534,3.513c0.288,0.472,0.139,1.087-0.333,1.375C53.52,16.74,53.34,16.787,53.162,16.787z M9.41,13.529
	c-0.226,0-0.454-0.076-0.641-0.233c-0.424-0.354-0.48-0.984-0.126-1.408c0.924-1.105,1.941-2.149,3.025-3.101
	c0.416-0.364,1.047-0.323,1.412,0.091c0.364,0.415,0.323,1.047-0.091,1.412c-1.007,0.884-1.953,1.853-2.811,2.88
	C9.98,13.407,9.696,13.529,9.41,13.529z M46.975,9.757c-0.219,0-0.44-0.072-0.625-0.22c-1.045-0.839-2.164-1.602-3.325-2.268
	c-0.479-0.274-0.645-0.886-0.369-1.365c0.273-0.479,0.885-0.646,1.365-0.37c1.25,0.717,2.454,1.539,3.581,2.441
	c0.431,0.346,0.5,0.975,0.154,1.406C47.559,9.629,47.268,9.757,46.975,9.757z M16.567,7.488c-0.344,0-0.679-0.178-0.865-0.497
	c-0.278-0.478-0.116-1.09,0.361-1.368c1.247-0.726,2.56-1.359,3.901-1.882c0.514-0.2,1.094,0.054,1.295,0.568
	c0.201,0.515-0.054,1.095-0.568,1.295c-1.245,0.485-2.463,1.073-3.621,1.747C16.911,7.445,16.738,7.488,16.567,7.488z M38.764,5.258
	c-0.106,0-0.214-0.017-0.32-0.053c-1.268-0.429-2.579-0.761-3.898-0.987c-0.544-0.094-0.91-0.61-0.816-1.155
	c0.093-0.544,0.604-0.908,1.154-0.817c1.422,0.244,2.836,0.602,4.201,1.064c0.523,0.177,0.804,0.745,0.627,1.268
	C39.57,4.995,39.181,5.258,38.764,5.258z M25.351,4.261c-0.476,0-0.897-0.34-0.983-0.825c-0.097-0.543,0.265-1.063,0.809-1.16
	c1.416-0.252,2.866-0.396,4.311-0.429c0.553-0.006,1.009,0.426,1.021,0.978s-0.425,1.01-0.978,1.021
	c-1.342,0.03-2.689,0.164-4.004,0.398C25.468,4.256,25.409,4.261,25.351,4.261z"/>
</svg>
