<?xml version="1.0" encoding="utf-8"?>
<!-- Generator: Adobe Illustrator 16.0.0, SVG Export Plug-In . SVG Version: 6.00 Build 0)  -->
<!DOCTYPE svg PUBLIC "-//W3C//DTD SVG 1.1//EN" "http://www.w3.org/Graphics/SVG/1.1/DTD/svg11.dtd">
<svg version="1.1" id="Capa_1" xmlns="http://www.w3.org/2000/svg" xmlns:xlink="http://www.w3.org/1999/xlink" x="0px" y="0px"
	 width="127px" height="127px" viewBox="0 0 127 127" enable-background="new 0 0 127 127" xml:space="preserve">
<g>
	<circle fill="#8BC7D1" cx="63.5" cy="63.5" r="63.497"/>
	<path fill="#5FA8B6" d="M63.54,0.004c-0.014,0-0.027-0.002-0.041-0.002c-35.068,0-63.496,28.43-63.496,63.498
		s28.428,63.498,63.496,63.498c0.014,0,0.027,0,0.041,0V0.004z"/>
	<path fill="#4C9BAB" d="M31.903,108.893c9.49,6.779,18.98,10.17,29.826,2.713c5.424-3.389,13.559-1.355,19.66,4.066
		c0.678,1.355,4.068,2.711,6.102,0.678c5.814-7.867,13.012-8.828,20.543-7.592c2.623-2.582,5.023-5.389,7.168-8.391
		c-0.271-0.059-0.543-0.117-0.816-0.184c-5.492-1.352-10.947-2.693-16.658-2.334c-5.445,0.346-10.592,1.982-15.957,2.766
		c-4.328,0.631-8.697-0.301-12.809-1.627c-4.787-1.543-9.561-3.404-14.686-2.975c-5.416,0.455-10.75,1.564-16.16,2.018
		c-5.42,0.455-10.494-0.127-15.783-1.258c-4.369-0.932-8.621-0.979-12.656,0.424c3.107,4.953,6.881,9.445,11.195,13.355
		C24.556,107.943,28.413,106.4,31.903,108.893z"/>
	<path fill="#8BC7D1" d="M87.491,116.35c-2.033,2.033-5.424,0.678-6.102-0.678c-6.102-5.422-14.236-7.455-19.66-4.066
		c-10.846,7.457-20.336,4.066-29.826-2.713c-3.49-2.492-7.348-0.949-11.031,1.66c11.266,10.217,26.217,16.445,42.627,16.445
		c17.352,0,33.074-6.961,44.535-18.24C100.503,107.521,93.306,108.482,87.491,116.35z"/>
	<path fill="#29798C" d="M87.491,116.35c-2.033,2.033-5.424,0.678-6.102-0.678c-6.102-5.422-14.236-7.455-19.66-4.066
		c-10.846,7.457-20.336,4.066-29.826-2.713c-3.49-2.492-7.348-0.949-11.031,1.66c11.266,10.217,26.217,16.445,42.627,16.445
		c17.352,0,33.074-6.961,44.535-18.24C100.503,107.521,93.306,108.482,87.491,116.35z"/>
</g>
</svg>
