<?xml version="1.0" encoding="utf-8"?>
<!-- Generator: Adobe Illustrator 16.0.0, SVG Export Plug-In . SVG Version: 6.00 Build 0)  -->
<!DOCTYPE svg PUBLIC "-//W3C//DTD SVG 1.1//EN" "http://www.w3.org/Graphics/SVG/1.1/DTD/svg11.dtd">
<svg version="1.1" id="Capa_1" xmlns="http://www.w3.org/2000/svg" xmlns:xlink="http://www.w3.org/1999/xlink" x="0px" y="0px"
	 width="170px" height="197px" viewBox="0 0 170 197" enable-background="new 0 0 170 197" xml:space="preserve">
<g>
	<path fill="#B3B3B3" d="M146.824,157.5h-27.061c27.826-13,47.02-41.443,47.02-74.516c0-46.062-37.23-83.091-83.158-83.091
		C37.7-0.106,0.47,36.768,0.47,82.829c0,33.072,19.194,61.671,47.019,74.671H20.124C14.333,157.5,9,163.453,9,169.261v15.774
		c0,5.809,5.333,9.465,11.124,9.465h126.701c5.791,0,10.176-3.656,10.176-9.465v-15.774C157,163.453,152.615,157.5,146.824,157.5z"
		/>
	<path opacity="0.4" fill="#FFFFFF" d="M149.572,159.5h-27.061c27.824-13,47.018-41.502,47.018-74.575
		c0-46.063-37.229-83.123-83.156-83.123c-45.925,0-83.155,36.919-83.155,82.982c0,33.075,19.192,61.715,47.018,74.715H22.871
		C17.08,159.5,12,165.333,12,171.139v15.775c0,5.809,5.08,9.586,10.871,9.586h126.702c5.791,0,10.428-3.777,10.428-9.586v-15.775
		C160,165.333,155.363,159.5,149.572,159.5z"/>
</g>
</svg>
