<?xml version="1.0" encoding="utf-8"?>
<!-- Generator: Adobe Illustrator 16.0.0, SVG Export Plug-In . SVG Version: 6.00 Build 0)  -->
<!DOCTYPE svg PUBLIC "-//W3C//DTD SVG 1.1//EN" "http://www.w3.org/Graphics/SVG/1.1/DTD/svg11.dtd">
<svg version="1.1" id="Capa_1" xmlns="http://www.w3.org/2000/svg" xmlns:xlink="http://www.w3.org/1999/xlink" x="0px" y="0px"
	 width="85px" height="77.351px" viewBox="0 0 85 77.351" enable-background="new 0 0 85 77.351" xml:space="preserve">
<g>
	<ellipse fill="#E1660E" cx="42.707" cy="70.344" rx="39.906" ry="7.007"/>
	<g>
		<path fill="#643288" d="M85,2.532H0v62h37.342c0.715,2,2.906,2.582,5.502,2.582c2.594,0,4.786-0.582,5.502-2.582H85V2.532z"/>
		<polygon fill="#CBCACA" points="81,52.677 3.784,52.618 3.672,60.44 81,60.467 		"/>
		<path fill="#E4E5E4" d="M8,53.517c25,0,35,6.25,35,6.25V6.25C43,6.25,33,0,8,0V53.517z"/>
		<path fill="#F0F0F1" d="M77,53.517c-25,0-34,6.25-34,6.25V6.25C43,6.25,52,0,77,0V53.517z"/>
		<g>
			<path fill="#E4E5E4" d="M57.163,49.63L60,53.165V1.116c0,0.334-2,0.719-4,1.127v49.514L57.163,49.63z"/>
		</g>
		<g>
			<path fill="#E63B3C" d="M56.914,48.939L60,51.757V0.412c0,0.334-2,0.719-6,1.127v50.218L56.914,48.939z"/>
		</g>
		<polygon fill="#F0F0F1" points="8,0 4.033,5.7 3.952,60.44 8,53.517 		"/>
		<polygon fill="#E4E5E4" points="77,0 81,6.338 81,60.459 77,53.517 		"/>
	</g>
</g>
</svg>
