<?xml version="1.0" encoding="utf-8"?>
<!-- Generator: Adobe Illustrator 16.0.0, SVG Export Plug-In . SVG Version: 6.00 Build 0)  -->
<!DOCTYPE svg PUBLIC "-//W3C//DTD SVG 1.1//EN" "http://www.w3.org/Graphics/SVG/1.1/DTD/svg11.dtd">
<svg version="1.1" id="Capa_1" xmlns="http://www.w3.org/2000/svg" xmlns:xlink="http://www.w3.org/1999/xlink" x="0px" y="0px"
	 width="60px" height="60px" viewBox="0 0 60 60" enable-background="new 0 0 60 60" xml:space="preserve">
<g>
	<defs>
		<circle id="SVGID_1_" cx="30" cy="29.999" r="29.665"/>
	</defs>
	<clipPath id="SVGID_2_">
		<use xlink:href="#SVGID_1_"  overflow="visible"/>
	</clipPath>
	<g clip-path="url(#SVGID_2_)">
		<circle fill="#8BC7D1" cx="30" cy="30.315" r="29.665"/>
		<path fill="#213B3F" d="M49.794,31.904c-3.185,0.101-4.518-4.827-4.518-4.827c-0.412-8.525-1.129-9.757-1.129-9.757
			c-1.646-0.72-3.393-1.646-5.445,0.923s-2.771,2.467-5.751,2.672s-2.465,2.053-2.259,5.032c0.205,2.978-1.131,2.978-1.131,2.978
			c-2.258,2.979,0.514,3.594,0.514,3.594c1.85,3.389,0.31,3.802,0.31,3.802s-0.616-2.259-3.185,0.718
			c-2.566,2.979,0.925,5.135,0.925,5.135c-0.215,1.201-0.808,2.742-1.423,4.131c-0.24,2.904-1.107,5.908-2.311,8.553
			c3.656,3.091,14.207,0.049,14.207,0.049c-1.949-0.41-1.438-3.08-1.438-3.08c0.516-1.438,3.391-1.027,3.391-1.027
			c9.959-1.437,7.701-16.842,7.701-16.842c2.569,0.203,2.772-2.052,2.772-2.052H49.794z"/>
		<g>
			<path fill="#213B3F" d="M14.972,18.947c-0.637,0.212-1.272,0.423-1.908,0.634c-0.426-2.543,1.484-1.057,2.12-2.119
				c0.636-1.271-0.212-2.545,0.849-3.605c0,1.271,0.637,1.484,1.062,2.119c4.028-11.879,23.12-5.727,30.97-3.604
				c-0.637,0.846-0.85,1.484-1.91,2.121c1.696,0.424,2.969-0.637,3.819-1.91c0.422,4.244-2.546,8.061-5.94,9.969
				c0.636-0.211,1.485-0.422,2.334-0.848c-0.849,3.607-9.334,3.816-12.516,4.666c-4.666,1.061-9.758,3.816-11.879,8.273
				c-1.061,1.908-1.91,4.666-1.484,6.576c0.635,2.545,3.182,3.182,4.243,5.303c2.756,4.666-3.396,7.425-7.212,5.938
				c1.271-0.211,2.119-1.059,2.331-2.332c-1.271,0.213-2.97,0.637-4.03,0.213c5.092-2.547-0.636-5.303-2.545-7.637
				c-2.121-2.332-3.394-5.303-4.241-8.484c-2.12-7.424,0.848-11.879,6.999-15.695"/>
		</g>
		<path fill="#213B3F" d="M41.903,54.798c0,0,3.512,4.836,4.059,6.078H19.966l2.633-5.828L41.903,54.798z"/>
		<path fill="#213B3F" d="M24.394,54.854c0,0,1.127-4.816,0.494-6.465c-0.635-1.646-11.406-8.617-8.873-20.025
			C18.552,16.956,31.587,9.063,44.147,17.32L24.394,54.854z"/>
		<g>
			<g>
				<path fill="#ED7235" d="M36.937,15.445c-3.248-1.95-8.769-0.812-12.016,0.485c-3.813,1.635-7.164,4.943-8.729,8.818
					c-0.708,2.803-0.632,5.896,0.126,8.535c0.531,1.852,1.459,3.867,3.196,4.883c0.433,0.252,0.872,0.428,1.321,0.549
					c2.149,0.045,4.516-0.809,5.547-2.486c1.625-2.436,0.65-5.846,3.086-7.957c2.273-2.111,6.008-1.787,8.607-3.409
					C41.646,22.429,40.671,17.394,36.937,15.445z"/>
			</g>
			<path fill="#EFC062" d="M26.789,30.101l-0.188-0.016c0.012-0.156,0.022-0.313,0.022-0.474c0-0.134-0.007-0.265-0.016-0.394
				l0.329-0.074c0.357-0.08,0.581-0.436,0.502-0.791c-0.08-0.355-0.436-0.582-0.791-0.5l-0.307,0.068
				c-0.098-0.283-0.219-0.558-0.361-0.814l0.206-0.15c0.298-0.211,0.365-0.625,0.155-0.924c-0.214-0.297-0.625-0.367-0.922-0.154
				l-0.23,0.166c-0.213-0.221-0.444-0.42-0.693-0.594l0.088-0.164c0.175-0.32,0.058-0.723-0.266-0.896
				c-0.32-0.174-0.721-0.057-0.896,0.266l-0.104,0.189c-0.309-0.106-0.629-0.184-0.96-0.227v-0.199c0-0.365-0.299-0.66-0.663-0.66
				c-0.368,0-0.663,0.295-0.663,0.66v0.219c-0.277,0.041-0.545,0.111-0.805,0.199l-0.156-0.306
				c-0.165-0.325-0.566-0.456-0.891-0.292c-0.326,0.17-0.455,0.566-0.289,0.891l0.156,0.307c-0.283,0.199-0.544,0.427-0.779,0.678
				l-0.285-0.253c-0.274-0.245-0.691-0.222-0.936,0.054c-0.242,0.271-0.217,0.689,0.057,0.934l0.393,0.35
				c-0.119,0.225-0.223,0.459-0.307,0.703l-0.478-0.122c-0.353-0.093-0.714,0.122-0.806,0.476s0.121,0.713,0.476,0.805l0.537,0.139
				c-0.013,0.137-0.019,0.273-0.019,0.413c0,0.136,0.006,0.272,0.019,0.405l-0.406,0.059c-0.362,0.051-0.613,0.389-0.561,0.75
				c0.052,0.361,0.388,0.611,0.751,0.559l0.484-0.068c0.088,0.25,0.193,0.494,0.318,0.727l-0.412,0.385
				c-0.264,0.25-0.276,0.67-0.027,0.937c0.25,0.263,0.669,0.278,0.936,0.026l0.282-0.264c0.204,0.215,0.429,0.41,0.667,0.586
				l-0.174,0.455c-0.133,0.34,0.037,0.723,0.377,0.855c0.341,0.132,0.723-0.037,0.854-0.379l0.115-0.295
				c0.315,0.117,0.643,0.199,0.983,0.246l0.011,0.24c0.019,0.363,0.329,0.645,0.692,0.625c0.366-0.015,0.646-0.324,0.63-0.691
				l-0.011-0.178c0.316-0.043,0.622-0.121,0.915-0.223l0.106,0.197c0.174,0.32,0.578,0.441,0.896,0.268
				c0.323-0.174,0.443-0.576,0.27-0.896l-0.1-0.184c0.236-0.168,0.457-0.357,0.66-0.564l0.225,0.193
				c0.275,0.238,0.691,0.207,0.931-0.072c0.241-0.275,0.207-0.693-0.069-0.932l-0.291-0.252c0.13-0.236,0.242-0.482,0.336-0.738
				l0.365,0.031c0.365,0.033,0.686-0.238,0.717-0.602S27.153,30.132,26.789,30.101z"/>
			<ellipse fill="#213B3F" cx="21.671" cy="29.611" rx="3.215" ry="3.204"/>
			<ellipse fill="#EFC062" cx="21.67" cy="29.611" rx="2.265" ry="2.239"/>
			<path fill="#EFC062" d="M40.396,21.163c-0.033-1.025-0.131-2.1-0.728-3.076c-0.39,1.131-1.667,2.207-2.955,2.207
				c-1.618,0-2.927-1.277-2.927-2.857c0-1.193,0.748-2.215,1.813-2.645c-1.15-0.373-2.355-0.434-3.541-0.213
				c0.025,0.034,0.154-0.234,0.188-0.205l0.294,0.65c-0.118,0.225-0.222,0.459-0.308,0.703l-0.477-0.123
				c-0.353-0.09-0.714,0.121-0.805,0.475c-0.094,0.355,0.12,0.717,0.477,0.807l0.537,0.139c-0.014,0.135-0.021,0.273-0.021,0.412
				c0,0.137,0.007,0.271,0.021,0.406l-0.408,0.059c-0.361,0.053-0.612,0.389-0.561,0.75c0.051,0.363,0.389,0.613,0.752,0.561
				l0.482-0.072c0.09,0.252,0.196,0.496,0.32,0.725l-0.411,0.389c-0.266,0.252-0.279,0.668-0.028,0.934
				c0.25,0.268,0.67,0.281,0.936,0.029l0.282-0.266c0.202,0.217,0.429,0.414,0.667,0.59l-0.176,0.453
				c-0.133,0.34,0.039,0.725,0.381,0.855c0.338,0.133,0.722-0.039,0.853-0.379l0.116-0.297c0.313,0.115,0.64,0.199,0.982,0.248
				l0.01,0.24c0.018,0.363,0.328,0.645,0.692,0.627s0.647-0.33,0.628-0.693l-0.008-0.176c0.315-0.047,0.62-0.121,0.913-0.227
				l0.108,0.197c0.174,0.322,0.576,0.443,0.897,0.271c0.321-0.176,0.441-0.578,0.267-0.9l-0.1-0.182
				c0.236-0.17,0.457-0.357,0.66-0.564L40.396,21.163z"/>
			<path fill="#8BC7D1" d="M32.257,23.847c0-0.09-0.004-0.178-0.012-0.268l0.646-0.197l0.011-0.303l-0.778-0.084
				c-0.049-0.146-0.108-0.291-0.18-0.428l0.454-0.527l-0.15-0.261l-0.627,0.306c-0.119-0.143-0.254-0.271-0.398-0.387l0.158-0.707
				l-0.256-0.16l-0.405,0.555c-0.183-0.088-0.378-0.152-0.583-0.197l-0.094-0.68l-0.296-0.059l-0.187,0.68
				c-0.158,0-0.313,0.018-0.463,0.045l-0.367-0.654l-0.297,0.052l0.084,0.782c-0.197,0.086-0.378,0.195-0.543,0.324l-0.613-0.387
				l-0.236,0.186l0.42,0.613c-0.128,0.154-0.238,0.324-0.334,0.506l-0.684-0.166l-0.163,0.254l0.634,0.475
				c-0.033,0.135-0.061,0.271-0.07,0.416l-0.742,0.117l-0.057,0.297l0.805,0.203c0.02,0.158,0.053,0.311,0.098,0.455l-0.598,0.428
				l0.082,0.289l0.753-0.164c0.088,0.156,0.189,0.301,0.304,0.436l-0.406,0.555l0.17,0.248l0.674-0.396
				c0.137,0.104,0.285,0.193,0.443,0.266l-0.129,0.607l0.258,0.155l0.404-0.575c0.193,0.045,0.393,0.068,0.596,0.068h0.014
				l0.199,0.592l0.299,0.006l0.058-0.658c0.202-0.045,0.395-0.109,0.575-0.195l0.432,0.416l0.27-0.133l-0.236-0.572
				c0.121-0.09,0.232-0.195,0.336-0.305l0.596,0.281l0.213-0.213l-0.462-0.527c0.095-0.162,0.173-0.334,0.237-0.516l0.664,0.066
				l0.125-0.274l-0.66-0.366C32.251,24.062,32.257,23.956,32.257,23.847z M28.11,23.655c0,0,0.037-0.624,0.406-0.805l0.303,0.418
				l-0.063,0.302L28.11,23.655z M28.624,24.851l0.441-0.266l0.297,0.09l0.029,0.647C29.392,25.322,28.771,25.235,28.624,24.851z
				 M29.931,23.128l-0.143-0.639c0,0,0.628-0.018,0.84,0.336l-0.392,0.336L29.931,23.128z M30.431,24.88l-0.218-0.467l0.118-0.283
				l0.652,0.039C30.983,24.169,30.826,24.779,30.431,24.88z"/>
			<path fill="#213B3F" d="M28.903,17.798c0-0.09-0.006-0.178-0.014-0.266l0.647-0.201l0.009-0.299l-0.777-0.084
				c-0.048-0.148-0.106-0.291-0.179-0.43l0.453-0.527l-0.149-0.262l-0.627,0.309c-0.121-0.145-0.254-0.273-0.398-0.389l0.159-0.707
				l-0.257-0.158l-0.403,0.555c-0.185-0.09-0.381-0.156-0.585-0.199l-0.095-0.678l-0.295-0.063l-0.187,0.682
				c-0.158,0.004-0.314,0.018-0.465,0.045l-0.365-0.654l-0.297,0.055l0.082,0.781c-0.194,0.086-0.377,0.193-0.541,0.322
				l-0.615-0.389l-0.236,0.188l0.422,0.613c-0.129,0.155-0.238,0.324-0.334,0.504l-0.684-0.164l-0.164,0.254l0.635,0.476
				c-0.034,0.134-0.061,0.274-0.074,0.415l-0.74,0.119l-0.054,0.297l0.804,0.203c0.02,0.154,0.051,0.309,0.098,0.455l-0.598,0.424
				l0.084,0.291l0.752-0.16c0.086,0.152,0.188,0.297,0.302,0.43l-0.406,0.557l0.171,0.248l0.674-0.396
				c0.137,0.104,0.285,0.191,0.442,0.268l-0.128,0.604l0.258,0.156l0.405-0.572c0.191,0.043,0.392,0.066,0.597,0.066h0.014
				l0.196,0.594l0.298,0.005l0.06-0.661c0.202-0.041,0.394-0.107,0.575-0.195l0.432,0.422l0.27-0.139l-0.236-0.568
				c0.119-0.092,0.232-0.195,0.337-0.309l0.595,0.285l0.213-0.215l-0.465-0.529c0.098-0.158,0.177-0.33,0.239-0.514l0.666,0.066
				l0.124-0.275l-0.661-0.365C28.896,18.015,28.903,17.905,28.903,17.798z M24.758,17.606c0,0,0.036-0.627,0.407-0.805l0.301,0.418
				l-0.062,0.303L24.758,17.606z M25.271,18.802l0.442-0.266l0.296,0.09l0.029,0.648C26.039,19.274,25.419,19.187,25.271,18.802z
				 M26.577,17.077l-0.143-0.635c0,0,0.628-0.02,0.838,0.334l-0.389,0.34L26.577,17.077z M27.075,18.835l-0.216-0.471l0.12-0.283
				l0.649,0.039C27.629,18.12,27.474,18.728,27.075,18.835z"/>
			<path fill="#FFFFFF" d="M25.75,22.322c0-0.038-0.001-0.071-0.005-0.106l0.262-0.08l0.003-0.121l-0.312-0.035
				c-0.022-0.059-0.045-0.115-0.074-0.172l0.183-0.211l-0.06-0.104l-0.254,0.121c-0.045-0.059-0.102-0.109-0.158-0.154l0.063-0.285
				l-0.102-0.063l-0.162,0.224c-0.076-0.037-0.154-0.064-0.236-0.08l-0.037-0.273l-0.118-0.023l-0.075,0.273
				c-0.063,0.002-0.126,0.007-0.188,0.018l-0.146-0.261l-0.119,0.019l0.032,0.316c-0.077,0.031-0.149,0.076-0.216,0.127
				l-0.247-0.156l-0.095,0.078l0.17,0.246c-0.053,0.063-0.098,0.129-0.134,0.199l-0.275-0.064l-0.069,0.102l0.259,0.193
				c-0.014,0.053-0.024,0.107-0.03,0.164l-0.299,0.047l-0.021,0.121l0.323,0.08c0.01,0.063,0.021,0.125,0.039,0.186l-0.239,0.168
				l0.031,0.117l0.305-0.063c0.033,0.059,0.076,0.117,0.121,0.172l-0.162,0.225l0.066,0.099l0.271-0.159
				c0.055,0.043,0.113,0.077,0.177,0.107l-0.05,0.242l0.104,0.064l0.163-0.23c0.077,0.017,0.155,0.027,0.239,0.027h0.006
				l0.079,0.239l0.118,0.001l0.024-0.264c0.083-0.021,0.157-0.047,0.231-0.082l0.172,0.17l0.111-0.055l-0.098-0.229
				c0.05-0.038,0.096-0.079,0.135-0.123l0.24,0.114l0.084-0.086l-0.186-0.211c0.04-0.066,0.071-0.137,0.097-0.209l0.266,0.027
				l0.052-0.109l-0.266-0.148C25.749,22.409,25.75,22.366,25.75,22.322z M24.086,22.245c0,0,0.013-0.252,0.161-0.322l0.122,0.166
				l-0.024,0.123L24.086,22.245z M24.291,22.726l0.178-0.107l0.12,0.037l0.011,0.262C24.6,22.917,24.352,22.88,24.291,22.726z
				 M24.817,22.032l-0.06-0.253c0,0,0.253-0.011,0.337,0.132l-0.156,0.137L24.817,22.032z M25.017,22.739l-0.088-0.189l0.049-0.115
				l0.263,0.018C25.24,22.452,25.177,22.695,25.017,22.739z"/>
			<path fill="#FFFFFF" d="M37.782,17.573c0-0.044-0.002-0.096-0.007-0.141l0.345-0.107l0.007-0.162l-0.415-0.043
				c-0.026-0.082-0.059-0.156-0.098-0.229l0.242-0.285l-0.08-0.139l-0.335,0.164c-0.063-0.076-0.136-0.146-0.214-0.207l0.086-0.379
				l-0.136-0.084l-0.216,0.295c-0.1-0.045-0.203-0.08-0.313-0.103l-0.052-0.366l-0.157-0.031l-0.102,0.365
				c-0.082,0-0.167,0.01-0.246,0.023l-0.197-0.352l-0.156,0.029l0.043,0.42c-0.104,0.045-0.201,0.104-0.289,0.172l-0.328-0.207
				l-0.126,0.1l0.226,0.326c-0.07,0.084-0.129,0.174-0.18,0.271l-0.365-0.088l-0.088,0.135l0.34,0.256
				c-0.02,0.071-0.031,0.145-0.041,0.221l-0.395,0.064l-0.027,0.156l0.428,0.109c0.011,0.084,0.027,0.166,0.052,0.242l-0.319,0.229
				l0.045,0.152l0.402-0.086c0.047,0.084,0.102,0.162,0.162,0.233l-0.219,0.296l0.094,0.133l0.359-0.213
				c0.072,0.057,0.15,0.104,0.237,0.145l-0.069,0.324l0.139,0.082l0.217-0.307c0.102,0.025,0.208,0.035,0.318,0.035h0.006
				l0.104,0.316l0.162,0.004l0.031-0.354c0.107-0.023,0.211-0.059,0.307-0.105l0.23,0.226l0.144-0.071l-0.126-0.305
				c0.064-0.051,0.124-0.105,0.18-0.163l0.318,0.149l0.115-0.113l-0.248-0.283c0.051-0.086,0.092-0.178,0.127-0.273l0.354,0.035
				l0.067-0.146l-0.353-0.197C37.778,17.688,37.782,17.632,37.782,17.573z M35.567,17.472c0,0,0.018-0.336,0.217-0.432l0.162,0.225
				l-0.034,0.162L35.567,17.472z M35.841,18.111l0.236-0.144l0.158,0.047l0.016,0.349C36.251,18.363,35.919,18.315,35.841,18.111z
				 M36.537,17.187l-0.073-0.338c0,0,0.334-0.01,0.447,0.178l-0.209,0.182L36.537,17.187z M36.806,18.126l-0.115-0.25l0.063-0.152
				l0.348,0.021C37.101,17.745,37.017,18.07,36.806,18.126z"/>
		</g>
	</g>
</g>
</svg>
