<?xml version="1.0" encoding="utf-8"?>
<!-- Generator: Adobe Illustrator 16.0.0, SVG Export Plug-In . SVG Version: 6.00 Build 0)  -->
<!DOCTYPE svg PUBLIC "-//W3C//DTD SVG 1.1//EN" "http://www.w3.org/Graphics/SVG/1.1/DTD/svg11.dtd">
<svg version="1.1" id="Capa_1" xmlns="http://www.w3.org/2000/svg" xmlns:xlink="http://www.w3.org/1999/xlink" x="0px" y="0px"
	 width="44px" height="44px" viewBox="0 0 44 44" enable-background="new 0 0 44 44" xml:space="preserve">
<path fill="#3B3B3A" d="M15.553,16.599c0.725,0,2.224,0,3.098,0c-0.051-0.293-0.082-0.619-0.082-0.968v-2.217
	c0-1.235,0.371-2.233,0.836-2.233h5.028c0.472,0,0.836,0.998,0.836,2.233v2.217c0,0.342-0.031,0.667-0.08,0.956
	c1.186-0.002,2.301-0.005,3.252-0.005c3.545-0.007,4.998,2.134,3.23,4.751c-1.767,2.622-4.661,6.906-6.432,9.523
	c-1.768,2.614-4.67,2.618-6.446,0.005c-1.775-2.609-4.684-6.888-6.459-9.501C10.561,18.748,12.006,16.606,15.553,16.599z"/>
</svg>
