<?xml version="1.0" encoding="utf-8"?>
<!-- Generator: Adobe Illustrator 16.0.0, SVG Export Plug-In . SVG Version: 6.00 Build 0)  -->
<!DOCTYPE svg PUBLIC "-//W3C//DTD SVG 1.1//EN" "http://www.w3.org/Graphics/SVG/1.1/DTD/svg11.dtd">
<svg version="1.1" id="Capa_1" xmlns="http://www.w3.org/2000/svg" xmlns:xlink="http://www.w3.org/1999/xlink" x="0px" y="0px"
	 width="19.93px" height="26.023px" viewBox="0 0 19.93 26.023" enable-background="new 0 0 19.93 26.023" xml:space="preserve">
<g>
	<g>
		<path d="M17.576,15.395v-1.124h1.16v1.159h-1.125v2.295h-1.159v-2.33H17.576z M1.164,9.562v1.164h1.16V9.562H1.164z M11.791,0
			v1.163h2.338V0H11.791z M14.137,20.062v2.331h1.16v-2.321h1.139v-2.327h-1.162v2.317H14.137z M14.121,24.784v-2.381h-1.163v2.35
			H3.553v-2.256h-1.16v3.526h11.728V24.784z M2.355,18.944H1.192v3.485h1.164V18.944z M3.517,12.973h1.16V8.372H3.524V8.364H2.363
			v1.164h1.154V12.973z M7.054,11.759h1.16V7.157H7.062V7.148h-2.4v1.163h2.393V11.759z M10.584,11.85h1.16V1.167h-1.16v4.791H8.246
			v1.164h2.338V11.85z M16.393,10.734v1.158h2.375v2.355h1.162v-3.522h-1.162v0.009H16.393z M1.156,10.761H0v8.116h1.156V10.761z
			 M14.145,16.518h1.16v-3.434h1.123v-1.159h-1.123V1.154h-1.16V16.518z M14.145,16.518"/>
	</g>
	<polygon fill="#FFFFFF" points="3.553,24.753 3.553,22.497 2.355,22.497 2.355,18.944 1.156,18.944 1.156,10.761 2.323,10.761 
		2.323,9.528 3.517,9.528 3.517,12.973 4.677,12.973 4.677,8.312 7.054,8.312 7.054,11.759 8.214,11.759 8.214,7.122 10.584,7.122 
		10.584,11.85 11.744,11.85 11.744,1.167 14.145,1.167 14.145,16.518 15.305,16.518 15.305,13.084 16.428,13.084 16.428,11.925 
		18.768,11.925 18.768,14.248 17.576,14.248 17.576,15.395 16.452,15.395 16.452,17.745 15.273,17.745 15.273,20.072 14.137,20.072 
		14.137,22.403 12.958,22.403 12.958,24.753 	"/>
</g>
</svg>
