<?xml version="1.0" encoding="utf-8"?>
<!-- Generator: Adobe Illustrator 16.0.0, SVG Export Plug-In . SVG Version: 6.00 Build 0)  -->
<!DOCTYPE svg PUBLIC "-//W3C//DTD SVG 1.1//EN" "http://www.w3.org/Graphics/SVG/1.1/DTD/svg11.dtd">
<svg version="1.1" id="Capa_1" xmlns="http://www.w3.org/2000/svg" xmlns:xlink="http://www.w3.org/1999/xlink" x="0px" y="0px"
	 width="60px" height="60px" viewBox="0 0 60 60" enable-background="new 0 0 60 60" xml:space="preserve">
<g>
	<circle fill="#8BC7D1" cx="30" cy="30" r="29.664"/>
	<g>
		<path fill-rule="evenodd" clip-rule="evenodd" fill="#213B3F" d="M27.158,25.761c-3.84,2.346-3.559,7.889,0.797,9.956
			c-1.027,2.209-2.176,4.326-4.141,5.863c-0.93,0.727-1.996,0.879-3.078,0.352c-1.916-0.93-3.811-0.949-5.741-0.041
			c-1.508,0.711-2.869,0.314-3.945-0.838c-3.005-3.209-4.59-6.986-4.257-11.436c0.236-3.154,2.408-5.704,5.332-6.23
			c0.801-0.142,1.744-0.14,2.48,0.153c2.089,0.827,4.048,0.821,6.17,0.013C23.102,22.665,25.791,23.73,27.158,25.761z"/>
		<path fill-rule="evenodd" clip-rule="evenodd" fill="#213B3F" d="M17.095,23.281c-0.632-2.418,2.14-5.743,4.813-5.719
			C22.471,20.273,19.902,23.329,17.095,23.281z"/>
	</g>
	<g>
		<path fill="#213B3F" d="M32.779,24.963c-0.883,0-1.601,0.716-1.601,1.601l0,0v2.724v1.278v2.721l0,0
			c0,0.885,0.718,1.602,1.601,1.602c0.885,0,1.6-0.717,1.6-1.602l0,0v-2.721v-1.278v-2.724l0,0
			C34.379,25.679,33.664,24.963,32.779,24.963z"/>
		<path fill="#213B3F" d="M53.218,26.564c0-0.885-0.718-1.601-1.601-1.601c-0.886,0-1.602,0.716-1.602,1.601l0,0v2.724v1.278v2.721
			l0,0c0,0.885,0.716,1.602,1.602,1.602c0.883,0,1.601-0.717,1.601-1.602l0,0v-2.721v-1.278V26.564L53.218,26.564z"/>
		<path fill="#213B3F" d="M35.031,25.242h-0.078v10.555c0,0.881,0.722,1.602,1.602,1.602h1.348v0.955v2.721l0,0
			c0,0.887,0.719,1.602,1.603,1.602s1.601-0.715,1.601-1.602l0,0v-2.721v-0.955h2.185v0.955v2.721c0,0.887,0.718,1.602,1.601,1.602
			c0.884,0,1.6-0.715,1.604-1.602v-2.721v-0.955h1.348c0.88,0,1.6-0.721,1.6-1.602V25.242h-0.027H35.031z"/>
		<path fill="#213B3F" d="M49.43,24.683V23.91c-0.023-0.217-0.057-0.435-0.1-0.645c-0.396-1.88-1.706-3.47-3.504-4.393l1.105-2.039
			c0.069-0.125,0.02-0.283-0.104-0.352c-0.127-0.069-0.285-0.021-0.354,0.104l-1.118,2.064c-0.951-0.408-2.018-0.637-3.145-0.637
			c-1.135,0-2.209,0.233-3.166,0.646l-1.124-2.074c-0.069-0.125-0.226-0.173-0.353-0.104c-0.127,0.068-0.174,0.227-0.105,0.352
			l1.111,2.051c-1.714,0.887-2.979,2.379-3.43,4.151c-0.115,0.458-0.178,0.937-0.178,1.429c0,0.073,0.002,0.145,0.005,0.219H49.43z
			 M45.492,20.761c0.375,0,0.682,0.303,0.682,0.68s-0.307,0.681-0.682,0.681s-0.68-0.304-0.68-0.681S45.117,20.761,45.492,20.761z
			 M38.903,20.761c0.375,0,0.679,0.303,0.679,0.68s-0.304,0.681-0.679,0.681c-0.378,0-0.681-0.304-0.681-0.681
			S38.525,20.761,38.903,20.761z"/>
	</g>
</g>
</svg>
