<?xml version="1.0" encoding="utf-8"?>
<!-- Generator: Adobe Illustrator 16.0.0, SVG Export Plug-In . SVG Version: 6.00 Build 0)  -->
<!DOCTYPE svg PUBLIC "-//W3C//DTD SVG 1.1//EN" "http://www.w3.org/Graphics/SVG/1.1/DTD/svg11.dtd">
<svg version="1.1" id="Capa_1" xmlns="http://www.w3.org/2000/svg" xmlns:xlink="http://www.w3.org/1999/xlink" x="0px" y="0px"
	 width="60px" height="60px" viewBox="0 0 60 60" enable-background="new 0 0 60 60" xml:space="preserve">
<g>
	<circle fill="#EFC062" cx="30" cy="30" r="29.664"/>
	<g>
		<path fill="#213B3F" d="M15.451,7.875c-0.943-0.152-1.148,0.875-1.148,0.875s5.011,4.646,5.861,5.473
			c0.852,0.827,0.291,3.273-1.791,5.604c-2.082,2.333-3.898,2.017-4.387,1.743c-0.492-0.271-6.361-5.012-6.361-5.012
			c-2.01,1.164,0.306,5.063,2.938,8.821c2.634,3.759,6.845,3.166,6.845,3.166c1.387-0.34,2.582-0.796,3.617-1.319l23.959,22.625
			c0.863,0.814,2.852,0.107,4.443-1.578c1.59-1.686,2.184-3.712,1.32-4.525L26.93,21.257c0.313-0.702,0.418-1.152,0.418-1.152
			C29,7.578,16.396,8.025,15.451,7.875z"/>
		<path fill="#213B3F" d="M15.451,7.875c-0.943-0.152-1.148,0.875-1.148,0.875s5.011,4.646,5.861,5.473
			c0.852,0.827,0.291,3.273-1.791,5.604c-2.082,2.333-3.898,2.017-4.387,1.743c-0.492-0.271-6.361-5.012-6.361-5.012
			c-2.01,1.164,0.306,5.063,2.938,8.821c2.634,3.759,6.845,3.166,6.845,3.166c1.387-0.34,2.582-0.796,3.617-1.319l23.959,22.625
			c0.863,0.814,2.852,0.107,4.443-1.578c1.59-1.686,2.184-3.712,1.32-4.525L26.93,21.257c0.313-0.702,0.418-1.152,0.418-1.152
			C29,7.578,16.396,8.025,15.451,7.875z"/>
		<path fill="#8BC7D1" d="M7.498,16.415l6.361,5.013c0,0,2.268,0.849,4.388-1.744c0,0,2.623-3.084,2.208-4.732
			c0,0,0.078-0.429-0.417-0.873c-0.492-0.442-5.861-5.471-5.861-5.471l0.163-0.229c0,0,6.379,4.915,6.396,6.225
			c0.021,1.309,0.837,2.463-3.187,6.386c0,0-1.964,2.019-4.384,0.604C10.746,20.182,7.498,16.415,7.498,16.415z"/>
		<path fill="#8BC7D1" d="M21.025,27.227l24.189,22.865c0,0,1.573,0.777,3.816-1.51c0,0-2.031,2.166-4.932-0.051
			c-2.898-2.217-22.742-21.494-22.742-21.494L21.025,27.227z"/>
		<path fill="#8BC7D1" d="M22.293,26.152l23.992,22.049c0,0,3.875-0.29,3.729-3.274L25.846,22.462
			C25.846,22.462,24.898,24.563,22.293,26.152z"/>
	</g>
</g>
</svg>
