<?xml version="1.0" encoding="utf-8"?>
<!-- Generator: Adobe Illustrator 16.0.0, SVG Export Plug-In . SVG Version: 6.00 Build 0)  -->
<!DOCTYPE svg PUBLIC "-//W3C//DTD SVG 1.1//EN" "http://www.w3.org/Graphics/SVG/1.1/DTD/svg11.dtd">
<svg version="1.1" id="Capa_1" xmlns="http://www.w3.org/2000/svg" xmlns:xlink="http://www.w3.org/1999/xlink" x="0px" y="0px"
	 width="83px" height="83px" viewBox="0 0 83 83" enable-background="new 0 0 83 83" xml:space="preserve">
<g>
	<g>
		<circle fill="#B3B3B3" cx="41.368" cy="41.368" r="41.368"/>
		<circle opacity="0.4" fill="#FFFFFF" cx="44.084" cy="44.084" r="41.369"/>
	</g>
	<g>
		<circle fill="#8BC7D1" cx="42.369" cy="42.368" r="33.656"/>
		<path fill="#8BC7D1" d="M25.621,66.428c5.031,3.594,10.062,5.391,15.81,1.438c2.875-1.796,7.187-0.718,10.421,2.155
			c0.359,0.719,2.156,1.438,3.234,0.359c3.082-4.17,6.896-4.68,10.889-4.024c1.391-1.368,2.662-2.856,3.799-4.447
			c-0.145-0.03-0.287-0.062-0.433-0.097c-2.911-0.717-5.804-1.428-8.831-1.238c-2.885,0.184-5.613,1.051-8.456,1.467
			c-2.296,0.334-4.61-0.16-6.789-0.863c-2.538-0.816-5.067-1.804-7.784-1.576c-2.871,0.242-5.697,0.83-8.566,1.069
			c-2.871,0.241-5.563-0.067-8.365-0.666c-2.316-0.494-4.57-0.519-6.708,0.224c1.647,2.626,3.646,5.008,5.934,7.08
			C21.727,65.926,23.771,65.107,25.621,66.428z"/>
		<path fill="#8BC7D1" d="M55.086,70.381c-1.078,1.078-2.875,0.359-3.234-0.359c-3.234-2.873-7.546-3.951-10.421-2.155
			c-5.748,3.952-10.778,2.155-15.81-1.438c-1.85-1.32-3.895-0.502-5.847,0.881c5.972,5.415,13.896,8.717,22.595,8.717
			c9.197,0,17.53-3.69,23.605-9.669C61.982,65.701,58.168,66.211,55.086,70.381z"/>
		<path fill="#8BC7D1" d="M55.086,70.381c-1.078,1.078-2.875,0.359-3.234-0.359c-3.234-2.873-7.546-3.951-10.421-2.155
			c-5.748,3.952-10.778,2.155-15.81-1.438c-1.85-1.32-3.895-0.502-5.847,0.881c5.972,5.415,13.896,8.717,22.595,8.717
			c9.197,0,17.53-3.69,23.605-9.669C61.982,65.701,58.168,66.211,55.086,70.381z"/>
		<path fill="#ED7235" d="M41.432,19.764L30.99,44.922c0,0,8.9-1.752,10.514,0.699L41.432,19.764z"/>
		<path opacity="0.6" fill="#ED7235" d="M41.432,19.764L30.99,44.922c0,0,8.9-1.752,10.514,0.699L41.432,19.764z"/>
		<path fill="#ED7235" d="M42.193,15.627c0,0,24.316,11.213,26.63,30.064c0,0-22.497-2.172-26.841,3.785L42.193,15.627z"/>
		<path fill="#FFFFFF" d="M42.543,55.223c0,0.232-0.188,0.42-0.42,0.42l0,0c-0.233,0-0.422-0.188-0.422-0.42V14.296
			c0-0.233,0.188-0.421,0.422-0.421l0,0c0.231,0,0.42,0.188,0.42,0.421V55.223z"/>
		<path fill="#8BC7D1" d="M33.207,51.668c0,0.424-0.516,0.768-1.148,0.768h-8.057c-0.634,0-1.148-0.344-1.148-0.768v-2.825
			c0-0.425,0.515-0.769,1.148-0.769h8.057c0.633,0,1.148,0.344,1.148,0.769V51.668z"/>
		<path fill="#8BC7D1" d="M21.521,52.279l6.027,11.493c0,0,21.866,4.976,31.887-6.377l5.256-6.308L21.521,52.279z"/>
		<path fill="#8BC7D1" d="M33.207,51.668c0,0.424-0.516,0.768-1.148,0.768h-8.057c-0.634,0-1.148-0.344-1.148-0.768v-2.825
			c0-0.425,0.515-0.769,1.148-0.769h8.057c0.633,0,1.148,0.344,1.148,0.769V51.668z"/>
		<path fill="#8BC7D1" d="M21.521,52.279l6.027,11.493c0,0,21.866,4.976,31.887-6.377l5.256-6.308L21.521,52.279z"/>
		<path fill="#8BC7D1" d="M33.207,51.668c0,0.424-0.516,0.768-1.148,0.768h-8.057c-0.634,0-1.148-0.344-1.148-0.768v-2.825
			c0-0.425,0.515-0.769,1.148-0.769h8.057c0.633,0,1.148,0.344,1.148,0.769V51.668z"/>
		<path fill="#8BC7D1" d="M21.521,52.279l6.027,11.493c0,0,21.866,4.976,31.887-6.377l5.256-6.308L21.521,52.279z"/>
		<path fill="#8BC7D1" d="M33.207,51.668c0,0.424-0.516,0.768-1.148,0.768h-8.057c-0.634,0-1.148-0.344-1.148-0.768v-2.825
			c0-0.425,0.515-0.769,1.148-0.769h8.057c0.633,0,1.148,0.344,1.148,0.769V51.668z"/>
		<path fill="#8BC7D1" d="M21.521,52.279l6.027,11.493c0,0,21.866,4.976,31.887-6.377l5.256-6.308L21.521,52.279z"/>
		<path fill="#8BC7D1" d="M33.207,51.668c0,0.424-0.516,0.768-1.148,0.768h-8.057c-0.634,0-1.148-0.344-1.148-0.768v-2.825
			c0-0.425,0.515-0.769,1.148-0.769h8.057c0.633,0,1.148,0.344,1.148,0.769V51.668z"/>
		<path fill="#8BC7D1" d="M21.521,52.279l6.027,11.493c0,0,21.866,4.976,31.887-6.377l5.256-6.308L21.521,52.279z"/>
		<path fill="#8BC7D1" d="M42.235,51.708l-20.714,0.571l6.027,11.493c0,0,6.877,1.564,14.687,0.937V51.708z"/>
		<path fill="#FFFFFF" d="M26.5,50.281c0,0.639-0.52,1.158-1.159,1.158c-0.638,0-1.155-0.52-1.155-1.158
			c0-0.637,0.518-1.156,1.155-1.156C25.98,49.125,26.5,49.645,26.5,50.281z"/>
		<path fill="#FFFFFF" d="M31.368,50.281c0,0.639-0.517,1.158-1.157,1.158c-0.639,0-1.154-0.52-1.154-1.158
			c0-0.637,0.516-1.156,1.154-1.156C30.852,49.125,31.368,49.645,31.368,50.281z"/>
		<path fill="#FFFFFF" d="M29.932,54.453c0,0.637-0.518,1.154-1.157,1.154c-0.638,0-1.155-0.518-1.155-1.154
			c0-0.641,0.518-1.158,1.155-1.158C29.414,53.295,29.932,53.813,29.932,54.453z"/>
		<path fill="#FFFFFF" d="M37.99,54.453c0,0.637-0.517,1.154-1.156,1.154c-0.637,0-1.156-0.518-1.156-1.154
			c0-0.641,0.52-1.158,1.156-1.158C37.474,53.295,37.99,53.813,37.99,54.453z"/>
		<path fill="#FFFFFF" d="M46.541,54.453c0,0.637-0.518,1.154-1.156,1.154c-0.641,0-1.158-0.518-1.158-1.154
			c0-0.641,0.518-1.158,1.158-1.158C46.023,53.295,46.541,53.813,46.541,54.453z"/>
		<path fill="#FFFFFF" d="M55.721,54.453c0,0.637-0.518,1.154-1.156,1.154s-1.156-0.518-1.156-1.154
			c0-0.641,0.518-1.158,1.156-1.158S55.721,53.813,55.721,54.453z"/>
		<path fill="#ED7235" d="M41.223,14.296l-3.714,0.35c0,0,3.714,1.893,3.644,2.454C41.082,17.659,41.223,14.296,41.223,14.296z"/>
	</g>
</g>
</svg>
