<?xml version="1.0" encoding="utf-8"?>
<!-- Generator: Adobe Illustrator 16.0.0, SVG Export Plug-In . SVG Version: 6.00 Build 0)  -->
<!DOCTYPE svg PUBLIC "-//W3C//DTD SVG 1.1//EN" "http://www.w3.org/Graphics/SVG/1.1/DTD/svg11.dtd">
<svg version="1.1" id="Capa_1" xmlns="http://www.w3.org/2000/svg" xmlns:xlink="http://www.w3.org/1999/xlink" x="0px" y="0px"
	 width="68.442px" height="67.406px" viewBox="0 0 68.442 67.406" enable-background="new 0 0 68.442 67.406" xml:space="preserve">
<g>
	<defs>
		<circle id="SVGID_1_" cx="33.657" cy="33.749" r="33.657"/>
	</defs>
	<clipPath id="SVGID_2_">
		<use xlink:href="#SVGID_1_"  overflow="visible"/>
	</clipPath>
	<circle clip-path="url(#SVGID_2_)" fill="#2E3D41" cx="33.772" cy="33.656" r="33.656"/>
	<path clip-path="url(#SVGID_2_)" fill="#99BEC7" d="M43.903,47.527c0,1.498-1.214,2.713-2.712,2.713H15.014
		c-1.498,0-2.713-1.215-2.713-2.713V32.439c0-1.498,1.215-2.712,2.713-2.712h26.178c1.498,0,2.712,1.214,2.712,2.712V47.527z"/>
	<path clip-path="url(#SVGID_2_)" fill="#99BEC7" d="M35.482,45.609c0,1.498-1.215,2.713-2.713,2.713H18.683
		c-1.499,0-2.712-1.215-2.712-2.713v-9.084c0-1.498,1.213-2.713,2.712-2.713H32.77c1.498,0,2.713,1.215,2.713,2.713V45.609z"/>
	<path clip-path="url(#SVGID_2_)" fill="#99BEC7" d="M34.814,42.441c0,1.498-1.215,2.712-2.712,2.712h-3.498
		c-1.497,0-2.713-1.214-2.713-2.712v-1.747c0-1.497,1.216-2.712,2.713-2.712h3.498c1.497,0,2.712,1.215,2.712,2.712V42.441z"/>
	<ellipse clip-path="url(#SVGID_2_)" fill="#2E3D41" cx="40.568" cy="47.07" rx="1.252" ry="1.335"/>
	<rect x="43.371" y="33.752" clip-path="url(#SVGID_2_)" fill="#99BEC7" width="3.691" height="11.676"/>
	<polygon clip-path="url(#SVGID_2_)" fill="#99BEC7" points="46.523,34.279 46.014,39.517 45.996,39.517 46.005,39.615 
		45.996,39.703 46.014,39.703 46.461,44.946 52.07,48.4 52.172,39.703 52.174,39.703 52.174,30.891 	"/>
	<rect x="11.285" y="33.363" clip-path="url(#SVGID_2_)" fill="#99BEC7" width="1.199" height="3.791"/>
	<polygon clip-path="url(#SVGID_2_)" fill="#99BEC7" points="11.462,33.535 11.627,35.234 11.633,35.234 11.63,35.268 
		11.633,35.295 11.627,35.295 11.482,36.998 9.66,38.119 9.627,35.295 9.627,35.295 9.627,32.435 	"/>
	<path clip-path="url(#SVGID_2_)" fill="#DAB967" d="M65.764,20.897L52.008,31.386l0.107,16.786l10.258,6.248
		C71.854,46.297,67.941,32.063,65.764,20.897z"/>
	<rect x="43.371" y="33.752" clip-path="url(#SVGID_2_)" fill="#99BEC7" width="3.691" height="11.676"/>
</g>
</svg>
