<?xml version="1.0" encoding="utf-8"?>
<!-- Generator: Adobe Illustrator 16.0.0, SVG Export Plug-In . SVG Version: 6.00 Build 0)  -->
<!DOCTYPE svg PUBLIC "-//W3C//DTD SVG 1.1//EN" "http://www.w3.org/Graphics/SVG/1.1/DTD/svg11.dtd">
<svg version="1.1" id="Capa_1" xmlns="http://www.w3.org/2000/svg" xmlns:xlink="http://www.w3.org/1999/xlink" x="0px" y="0px"
	 width="67.817px" height="67.819px" viewBox="0 0 67.817 67.819" enable-background="new 0 0 67.817 67.819" xml:space="preserve">
<g>
	<defs>
		<circle id="SVGID_1_" cx="33.909" cy="33.909" r="33.909"/>
	</defs>
	<clipPath id="SVGID_2_">
		<use xlink:href="#SVGID_1_"  overflow="visible"/>
	</clipPath>
	<g clip-path="url(#SVGID_2_)">
		<circle fill="#DAB967" cx="33.91" cy="33.815" r="33.909"/>
		<path fill="#2E3D41" d="M44.118,47.79c0,1.51-1.223,2.732-2.732,2.732H15.012c-1.51,0-2.734-1.223-2.734-2.732V32.589
			c0-1.51,1.225-2.732,2.734-2.732h26.374c1.51,0,2.732,1.223,2.732,2.732V47.79z"/>
		<path opacity="0.3" fill="#2E3D41" d="M33.976,29.856H15.012c-1.51,0-2.734,1.223-2.734,2.732V47.79
			c0,1.51,1.225,2.732,2.734,2.732h18.964V29.856z"/>
		<path fill="#99BEC7" d="M35.634,45.858c0,1.508-1.224,2.732-2.733,2.732H18.707c-1.508,0-2.732-1.225-2.732-2.732v-9.152
			c0-1.51,1.225-2.732,2.732-2.732H32.9c1.51,0,2.733,1.223,2.733,2.732V45.858z"/>
		<path fill="#2E3D41" d="M34.961,42.667c0,1.508-1.225,2.73-2.733,2.73h-3.524c-1.508,0-2.731-1.223-2.731-2.73v-1.762
			c0-1.508,1.224-2.731,2.731-2.731h3.524c1.509,0,2.733,1.224,2.733,2.731V42.667z"/>
		<ellipse fill="#DAB967" cx="40.758" cy="47.331" rx="1.26" ry="1.344"/>
		<rect x="43.583" y="33.913" fill="#2E3D41" width="3.718" height="11.763"/>
		<polygon fill="#2E3D41" points="46.758,34.444 46.244,39.72 46.227,39.72 46.235,39.819 46.227,39.907 46.243,39.907 
			46.694,45.19 52.346,48.671 52.448,39.907 52.449,39.907 52.449,31.028 		"/>
		<rect x="11.256" y="33.521" fill="#2E3D41" width="1.207" height="3.82"/>
		<polygon fill="#2E3D41" points="11.432,33.692 11.598,35.405 11.604,35.405 11.602,35.438 11.604,35.466 11.6,35.466 
			11.453,37.183 9.618,38.312 9.584,35.466 9.584,35.466 9.584,32.585 		"/>
		<path opacity="0.5" fill="#FFFFFF" d="M66.309,20.46L52.449,31.028l0.109,16.912l10.335,6.295
			C72.444,46.052,68.504,31.71,66.309,20.46z"/>
		<rect x="43.583" y="33.913" fill="#2E3D41" width="3.718" height="11.763"/>
	</g>
</g>
</svg>
