<?xml version="1.0" encoding="utf-8"?>
<!-- Generator: Adobe Illustrator 16.0.0, SVG Export Plug-In . SVG Version: 6.00 Build 0)  -->
<!DOCTYPE svg PUBLIC "-//W3C//DTD SVG 1.1//EN" "http://www.w3.org/Graphics/SVG/1.1/DTD/svg11.dtd">
<svg version="1.1" id="Capa_1" xmlns="http://www.w3.org/2000/svg" xmlns:xlink="http://www.w3.org/1999/xlink" x="0px" y="0px"
	 width="60px" height="60px" viewBox="0 0 60 60" enable-background="new 0 0 60 60" xml:space="preserve">
<g>
	<circle fill="#213B3F" cx="30.106" cy="30.029" r="30"/>
	<g>
		<g>
			<path fill="#8BC7D1" d="M12.231,36.704c1.352,0.395,2.794,0.965,4.215,1.004c0.535,0.015,1.069-0.016,1.601-0.08
				c0.662-0.228,1.367-0.359,2.082-0.435c0.573-0.17,1.138-0.372,1.688-0.603c0.029-3.68,0.099-13.35,0.099-13.35
				s-1.303-0.32-2.061-0.32c-0.759,0-2.218-1.314-2.218-1.314l-1.428-0.208c-0.014-0.346-0.022-0.535-0.022-0.535l-2.824,0.415
				c0,0-1.459,1.315-2.22,1.315c-0.756,0-2.058,0.32-2.058,0.32s0.067,9.207,0.095,13.072
				C10.212,36.148,11.223,36.408,12.231,36.704z"/>
			<path fill="#8BC7D1" d="M11.339,36.7c0.845,0.208,1.667,0.483,2.515,0.685c0.564,0.13,1.154,0.257,1.737,0.408V20.949
				l-2.23,0.328c0,0-1.459,1.315-2.22,1.315c-0.756,0-2.058,0.32-2.058,0.32s0.067,9.411,0.097,13.2
				C9.872,36.384,10.626,36.525,11.339,36.7z"/>
			<path fill="#FFFFFF" d="M13.04,20.285c-0.043,0.08-0.36,1.7-0.723,1.955c-0.359,0.258,2.586,1.508,3.196,1.539
				c0.612,0.032,2.611-1.122,2.611-1.122s-0.276-1.762-0.332-2.212C17.737,19.995,13.234,19.931,13.04,20.285z"/>
			<path opacity="0.5" fill="#D2D2D2" d="M14.569,20.063c-0.802,0.018-1.458,0.093-1.529,0.222c-0.043,0.08-0.36,1.7-0.723,1.955
				c-0.257,0.184,1.188,0.881,2.252,1.272V20.063z"/>
			<path fill="#FFFFFF" d="M18.78,13.908h0.01c0,0-0.01-0.028-0.027-0.067c-0.013-0.038-0.022-0.065-0.039-0.077v-0.002
				c-0.224-0.428-1.07-1.657-3.389-1.555c-2.242,0.099-3.02,1.127-3.239,1.535c-0.007,0.007-0.016,0.015-0.023,0.023
				c-0.02,0.021-0.038,0.069-0.052,0.136l-0.002,0.008h0.002c-0.191,0.949,0.35,5.989,0.409,6.293
				c0.055,0.282,2.085,1.768,2.597,2.137c0.121-0.002,0.24-0.012,0.359-0.003c0.12,0.008,0.237,0.015,0.358,0.021
				c0.47-0.336,2.567-1.865,2.625-2.155C18.428,19.896,18.967,14.857,18.78,13.908z"/>
			<path opacity="0.5" fill="#D2D2D2" d="M15.657,12.204c-0.105-0.002-0.21-0.002-0.322,0.002c-2.242,0.099-3.02,1.127-3.239,1.535
				c-0.007,0.007-0.016,0.015-0.023,0.023c-0.02,0.021-0.038,0.069-0.052,0.136l-0.002,0.008h0.002
				c-0.191,0.949,0.35,5.989,0.409,6.293c0.055,0.282,2.085,1.768,2.597,2.137c0.121-0.002,0.24-0.012,0.359-0.003
				c0.092,0.007,0.181,0.011,0.271,0.015V12.204z"/>
			
				<ellipse transform="matrix(0.9978 -0.0657 0.0657 0.9978 -1.0895 0.824)" fill="#FFFFFF" cx="11.988" cy="16.982" rx="0.465" ry="1.025"/>
			
				<ellipse transform="matrix(0.9978 -0.0657 0.0657 0.9978 -1.0895 0.824)" opacity="0.5" fill="#D2D2D2" cx="11.988" cy="16.982" rx="0.465" ry="1.025"/>
			
				<ellipse transform="matrix(0.9917 0.1289 -0.1289 0.9917 2.3622 -2.2824)" fill="#FFFFFF" cx="18.815" cy="17.11" rx="0.464" ry="1.024"/>
			<path fill="#F0F0F0" d="M13.526,37.047c0,0,1.236,0.173,1.637-0.012c0,0,0.425-0.142,0.432-0.011
				c0.007,0.135,0.149,0.417-0.421,0.483c0,0,0.397,0.479,1.655,0.241c0,0,0.45,0.646-0.029,1.024
				c-0.478,0.381-1.317,0.784-3.907-0.145c0,0,0.555-1.532,0.47-1.662L13.526,37.047z"/>
			<path fill="#FFFFFF" d="M17.391,37.454c0,0-1.074,0.104-1.438-0.105c0,0-0.383-0.167-0.381-0.035
				c0.002,0.133-0.105,0.409,0.399,0.513c0,0-0.32,0.457-1.442,0.146c0,0-0.357,0.621,0.085,1.031
				c0.444,0.411,1.205,0.865,3.43,0.081c0,0-0.58-1.574-0.511-1.699L17.391,37.454z"/>
			<path fill="#8BC7D1" d="M9.469,22.913c0,0-1.601-0.065-2.242,1.345c-0.642,1.41-2.5,10.644-1.602,11.284
				c0.897,0.643,5.898,2.951,7.757,3.208l0.642-1.41c0,0-5.129-3.72-5.129-4.168C8.894,32.723,10.108,23.618,9.469,22.913z"/>
			<path fill="#8BC7D1" d="M21.8,23.168c0,0,1.6-0.064,2.242,1.347c0.64,1.41,2.5,10.644,1.602,11.285
				c-0.897,0.64-5.898,2.949-7.756,3.204l-0.641-1.41c0,0,5.129-3.719,5.129-4.168C22.375,32.98,21.16,23.875,21.8,23.168z"/>
			<path fill="#8BC7D1" d="M12.21,15.928c0,0-0.188-2.109,0.518-2.204c0.703-0.095,2.625,0.893,5.349-0.046
				c0,0,0.61,0.188,0.61,2.25l0.045,0.284c0,0,0.283-0.234,0.47,0.187l0.14-2.77c0,0-1.644-3.612-6.242-1.594
				c0,0-1.313,0.516-1.408,1.831l-0.139,2.346C11.554,16.212,11.975,15.695,12.21,15.928z"/>
		</g>
		<g>
			<path fill="#ED7235" d="M35.634,19.974c0.697,0.203,1.446,0.498,2.181,0.519c0.275,0.007,0.555-0.009,0.83-0.042
				c0.342-0.117,0.708-0.186,1.076-0.224c0.297-0.086,0.589-0.193,0.873-0.311c0.015-1.904,0.049-6.91,0.049-6.91
				s-0.671-0.165-1.064-0.165c-0.393,0-1.148-0.68-1.148-0.68l-0.737-0.109c-0.008-0.18-0.012-0.276-0.012-0.276l-1.462,0.215
				c0,0-0.756,0.679-1.147,0.679c-0.394,0-1.066,0.166-1.066,0.166S34.04,17.6,34.054,19.6
				C34.587,19.685,35.113,19.819,35.634,19.974z"/>
			<path fill="#ED7235" d="M35.173,19.97c0.437,0.107,0.862,0.25,1.301,0.354c0.292,0.069,0.597,0.135,0.9,0.213v-8.718
				l-1.155,0.171c0,0-0.756,0.679-1.147,0.679c-0.394,0-1.066,0.166-1.066,0.166s0.035,4.871,0.049,6.832
				C34.413,19.808,34.803,19.881,35.173,19.97z"/>
			<path fill="#FFFFFF" d="M36.054,11.476c-0.024,0.042-0.187,0.879-0.374,1.011c-0.187,0.132,1.337,0.778,1.653,0.796
				c0.315,0.016,1.353-0.581,1.353-0.581s-0.146-0.914-0.174-1.145C38.482,11.326,36.153,11.293,36.054,11.476z"/>
			<path opacity="0.5" fill="#D2D2D2" d="M36.843,11.359c-0.413,0.01-0.753,0.049-0.789,0.117c-0.024,0.042-0.187,0.879-0.374,1.011
				c-0.135,0.095,0.614,0.457,1.163,0.659V11.359z"/>
			<path fill="#FFFFFF" d="M39.021,8.174h0.007c0,0-0.005-0.012-0.015-0.034c-0.004-0.018-0.011-0.034-0.02-0.04l0,0
				c-0.117-0.223-0.555-0.859-1.754-0.808c-1.159,0.054-1.563,0.585-1.678,0.796l-0.011,0.012c-0.011,0.01-0.019,0.036-0.027,0.069
				c0,0.002,0,0.004,0,0.004l0,0c-0.098,0.494,0.181,3.101,0.212,3.257c0.028,0.148,1.079,0.918,1.346,1.106
				c0.06-0.002,0.123-0.005,0.184-0.002c0.062,0.004,0.124,0.01,0.188,0.014c0.241-0.176,1.327-0.966,1.357-1.118
				C38.842,11.275,39.122,8.667,39.021,8.174z"/>
			<path opacity="0.5" fill="#D2D2D2" d="M37.406,7.292c-0.054,0-0.109,0-0.166,0c-1.159,0.054-1.563,0.585-1.678,0.796
				l-0.011,0.012c-0.011,0.01-0.019,0.036-0.027,0.069c0,0.002,0,0.004,0,0.004l0,0c-0.098,0.494,0.181,3.101,0.212,3.257
				c0.028,0.148,1.079,0.918,1.346,1.106c0.06-0.002,0.123-0.005,0.184-0.002c0.047,0.004,0.095,0.007,0.141,0.01V7.292z"/>
			
				<ellipse transform="matrix(0.9976 -0.0689 0.0689 0.9976 -0.5888 2.4711)" fill="#FFFFFF" cx="35.507" cy="9.767" rx="0.241" ry="0.53"/>
			
				<ellipse transform="matrix(0.9976 -0.0689 0.0689 0.9976 -0.5888 2.4711)" opacity="0.5" fill="#D2D2D2" cx="35.507" cy="9.767" rx="0.241" ry="0.53"/>
			
				<ellipse transform="matrix(0.9917 0.1285 -0.1285 0.9917 1.5874 -4.9359)" fill="#FFFFFF" cx="39.041" cy="9.832" rx="0.241" ry="0.531"/>
			<path fill="#F0F0F0" d="M36.304,20.151c0,0,0.64,0.089,0.848-0.006c0,0,0.221-0.075,0.223-0.006
				c0.004,0.069,0.077,0.213-0.219,0.25c0,0,0.205,0.246,0.856,0.125c0,0,0.233,0.332-0.015,0.53
				c-0.248,0.197-0.681,0.404-2.021-0.076c0,0,0.287-0.792,0.243-0.861L36.304,20.151z"/>
			<path fill="#FFFFFF" d="M38.305,20.361c0,0-0.558,0.053-0.744-0.056c0,0-0.198-0.085-0.198-0.018
				c0,0.069-0.054,0.211,0.208,0.265c0,0-0.167,0.237-0.747,0.077c0,0-0.186,0.322,0.043,0.533c0.23,0.212,0.624,0.447,1.776,0.042
				c0,0-0.299-0.814-0.265-0.879L38.305,20.361z"/>
			<path fill="#ED7235" d="M34.204,12.835c0,0-0.83-0.034-1.158,0.697c-0.333,0.729-1.296,5.509-0.831,5.84
				c0.462,0.331,3.052,1.526,4.015,1.658l0.331-0.729c0,0-2.655-1.926-2.655-2.158S34.534,13.201,34.204,12.835z"/>
			<path fill="#ED7235" d="M40.586,12.968c0,0,0.829-0.034,1.158,0.696c0.333,0.729,1.295,5.507,0.831,5.839
				c-0.465,0.332-3.052,1.527-4.015,1.66l-0.331-0.73c0,0,2.654-1.924,2.654-2.156C40.884,18.045,40.256,13.333,40.586,12.968z"/>
			<path fill="#ED7235" d="M35.622,9.223c0,0-0.098-1.092,0.267-1.142c0.365-0.049,1.361,0.46,2.77-0.025
				c0,0,0.316,0.099,0.316,1.167l0.024,0.146c0,0,0.145-0.123,0.241,0.096l0.075-1.433c0,0-0.851-1.871-3.23-0.826
				c0,0-0.68,0.267-0.729,0.948l-0.073,1.215C35.282,9.369,35.502,9.1,35.622,9.223z"/>
		</g>
		<g>
			<path fill="#EFC062" d="M47.559,35.25c0.7,0.205,1.445,0.497,2.182,0.52c0.277,0.007,0.554-0.009,0.828-0.043
				c0.343-0.116,0.708-0.187,1.079-0.226c0.295-0.085,0.587-0.19,0.874-0.311c0.012-1.904,0.048-6.909,0.048-6.909
				s-0.674-0.166-1.064-0.166c-0.392,0-1.149-0.679-1.149-0.679l-0.738-0.108c-0.007-0.179-0.011-0.278-0.011-0.278l-1.462,0.216
				c0,0-0.755,0.68-1.149,0.68c-0.391,0-1.064,0.165-1.064,0.165s0.033,4.765,0.049,6.766C46.514,34.962,47.039,35.096,47.559,35.25
				z"/>
			<path fill="#EFC062" d="M47.098,35.246c0.438,0.108,0.862,0.25,1.302,0.354c0.292,0.07,0.597,0.134,0.898,0.215v-8.719
				l-1.153,0.171c0,0-0.755,0.68-1.149,0.68c-0.391,0-1.064,0.165-1.064,0.165s0.033,4.871,0.049,6.832
				C46.339,35.084,46.728,35.157,47.098,35.246z"/>
			<path fill="#FFFFFF" d="M47.979,26.75c-0.023,0.043-0.188,0.881-0.375,1.015c-0.186,0.13,1.336,0.776,1.654,0.794
				c0.317,0.018,1.352-0.58,1.352-0.58s-0.144-0.914-0.174-1.145C50.407,26.603,48.078,26.569,47.979,26.75z"/>
			<path opacity="0.5" fill="#D2D2D2" d="M48.769,26.638c-0.414,0.008-0.754,0.047-0.79,0.113c-0.023,0.043-0.188,0.881-0.375,1.015
				c-0.132,0.095,0.616,0.453,1.165,0.655V26.638z"/>
			<path fill="#FFFFFF" d="M50.945,23.45h0.006c0,0-0.004-0.011-0.013-0.033c-0.007-0.016-0.011-0.032-0.019-0.041h-0.002
				c-0.114-0.22-0.552-0.856-1.752-0.803c-1.159,0.051-1.563,0.583-1.678,0.792l-0.011,0.011c-0.013,0.011-0.021,0.036-0.028,0.072
				v0.002l0,0c-0.099,0.492,0.182,3.101,0.212,3.259c0.029,0.147,1.08,0.914,1.345,1.106c0.062-0.002,0.125-0.006,0.186-0.002
				c0.063,0.004,0.125,0.008,0.185,0.012c0.244-0.174,1.33-0.967,1.358-1.116C50.764,26.551,51.046,23.942,50.945,23.45z"/>
			<path opacity="0.5" fill="#D2D2D2" d="M49.332,22.569c-0.054,0-0.108,0-0.166,0.004c-1.159,0.051-1.563,0.583-1.678,0.792
				l-0.011,0.011c-0.013,0.011-0.021,0.036-0.028,0.072v0.002l0,0c-0.099,0.492,0.182,3.101,0.212,3.259
				c0.029,0.147,1.08,0.914,1.345,1.106c0.062-0.002,0.125-0.006,0.186-0.002c0.048,0.004,0.095,0.006,0.141,0.008V22.569z"/>
			
				<ellipse transform="matrix(0.9978 -0.066 0.066 0.9978 -1.5504 3.1874)" fill="#FFFFFF" cx="47.432" cy="25.043" rx="0.24" ry="0.532"/>
			
				<ellipse transform="matrix(0.9978 -0.066 0.066 0.9978 -1.5504 3.1874)" opacity="0.5" fill="#D2D2D2" cx="47.432" cy="25.043" rx="0.24" ry="0.532"/>
			<path fill="#FFFFFF" d="M51.205,25.139c-0.036,0.292-0.174,0.514-0.307,0.498c-0.132-0.019-0.208-0.267-0.17-0.559
				c0.035-0.289,0.174-0.514,0.304-0.495C51.167,24.6,51.242,24.849,51.205,25.139z"/>
			<path fill="#F0F0F0" d="M48.23,35.426c0,0,0.64,0.091,0.847-0.004c0,0,0.219-0.074,0.221-0.006
				c0.004,0.068,0.078,0.213-0.218,0.251c0,0,0.207,0.246,0.857,0.123c0,0,0.232,0.333-0.015,0.531
				c-0.248,0.196-0.681,0.406-2.023-0.076c0,0,0.291-0.792,0.245-0.859L48.23,35.426z"/>
			<path fill="#FFFFFF" d="M50.229,35.638c0,0-0.554,0.053-0.742-0.055c0,0-0.199-0.087-0.197-0.018
				c0,0.067-0.054,0.211,0.206,0.265c0,0-0.167,0.237-0.746,0.074c0,0-0.188,0.323,0.043,0.533c0.229,0.215,0.623,0.448,1.776,0.043
				c0,0-0.3-0.813-0.265-0.879L50.229,35.638z"/>
			<path fill="#EFC062" d="M46.128,28.111c0,0-0.827-0.032-1.159,0.697c-0.332,0.73-1.292,5.509-0.83,5.841
				c0.466,0.332,3.054,1.525,4.016,1.658l0.332-0.729c0,0-2.654-1.925-2.654-2.158C45.832,33.189,46.461,28.476,46.128,28.111z"/>
			<path fill="#EFC062" d="M52.51,28.246c0,0,0.83-0.034,1.161,0.695c0.332,0.731,1.294,5.509,0.83,5.84
				c-0.465,0.332-3.054,1.526-4.014,1.658l-0.334-0.729c0,0,2.655-1.925,2.655-2.157C52.809,33.322,52.181,28.611,52.51,28.246z"/>
			<path fill="#EFC062" d="M47.548,24.498c0,0-0.097-1.094,0.267-1.141c0.364-0.047,1.361,0.461,2.77-0.023
				c0,0,0.314,0.097,0.314,1.164l0.025,0.146c0,0,0.146-0.122,0.243,0.098l0.071-1.432c0,0-0.848-1.873-3.228-0.826
				c0,0-0.682,0.267-0.729,0.946l-0.074,1.214C47.207,24.644,47.426,24.377,47.548,24.498z"/>
		</g>
		<g>
			<path fill="#8ACE9C" d="M35.342,52.094c0.699,0.201,1.445,0.496,2.183,0.519c0.276,0.006,0.553-0.011,0.827-0.044
				c0.343-0.116,0.708-0.184,1.079-0.225c0.296-0.087,0.588-0.191,0.871-0.312c0.018-1.903,0.051-6.908,0.051-6.908
				s-0.673-0.165-1.064-0.165c-0.394,0-1.149-0.681-1.149-0.681l-0.737-0.108c-0.008-0.176-0.014-0.277-0.014-0.277l-1.459,0.214
				c0,0-0.756,0.682-1.15,0.682c-0.391,0-1.065,0.166-1.065,0.166s0.035,4.764,0.051,6.765
				C34.297,51.804,34.82,51.938,35.342,52.094z"/>
			<path fill="#8ACE9C" d="M34.88,52.089c0.439,0.107,0.864,0.249,1.301,0.354c0.293,0.066,0.599,0.134,0.901,0.215v-8.721
				l-1.153,0.17c0,0-0.756,0.682-1.15,0.682c-0.391,0-1.065,0.166-1.065,0.166s0.035,4.871,0.051,6.83
				C34.121,51.927,34.512,52,34.88,52.089z"/>
			<path fill="#FFFFFF" d="M35.763,43.595c-0.026,0.04-0.188,0.877-0.376,1.011c-0.187,0.133,1.338,0.779,1.653,0.796
				c0.316,0.019,1.352-0.582,1.352-0.582s-0.143-0.91-0.172-1.143C38.191,43.445,35.861,43.411,35.763,43.595z"/>
			<path opacity="0.5" fill="#D2D2D2" d="M36.552,43.479c-0.416,0.011-0.756,0.048-0.789,0.115c-0.026,0.04-0.188,0.877-0.376,1.011
				c-0.134,0.096,0.614,0.456,1.165,0.658V43.479z"/>
			<path fill="#FFFFFF" d="M38.731,40.293h0.005c0,0-0.005-0.013-0.016-0.034c-0.004-0.019-0.011-0.033-0.018-0.039v-0.002
				c-0.117-0.22-0.556-0.857-1.756-0.804c-1.158,0.053-1.563,0.584-1.675,0.794c-0.006,0.003-0.01,0.01-0.01,0.01
				c-0.014,0.012-0.021,0.037-0.029,0.07v0.005l0,0c-0.1,0.493,0.18,3.102,0.211,3.257c0.027,0.148,1.08,0.916,1.344,1.108
				c0.062-0.003,0.124-0.007,0.188-0.003c0.062,0.004,0.124,0.01,0.187,0.011c0.241-0.174,1.326-0.966,1.355-1.116
				C38.55,43.395,38.828,40.786,38.731,40.293z"/>
			<path opacity="0.5" fill="#D2D2D2" d="M37.115,39.412c-0.053,0-0.108-0.001-0.168,0.002c-1.158,0.053-1.563,0.584-1.675,0.794
				c-0.006,0.003-0.01,0.01-0.01,0.01c-0.014,0.012-0.021,0.037-0.029,0.07v0.005l0,0c-0.1,0.493,0.18,3.102,0.211,3.257
				c0.027,0.148,1.08,0.916,1.344,1.108c0.062-0.003,0.124-0.007,0.188-0.003c0.047,0.004,0.094,0.006,0.14,0.008V39.412z"/>
			<path fill="#FFFFFF" d="M35.456,41.867c0.018,0.294-0.073,0.539-0.205,0.549c-0.135,0.008-0.255-0.224-0.274-0.516
				c-0.021-0.291,0.072-0.536,0.203-0.545C35.313,41.347,35.438,41.576,35.456,41.867z"/>
			<path opacity="0.5" fill="#D2D2D2" d="M35.456,41.867c0.018,0.294-0.073,0.539-0.205,0.549c-0.135,0.008-0.255-0.224-0.274-0.516
				c-0.021-0.291,0.072-0.536,0.203-0.545C35.313,41.347,35.438,41.576,35.456,41.867z"/>
			
				<ellipse transform="matrix(0.9913 0.1315 -0.1315 0.9913 5.8532 -4.7312)" fill="#FFFFFF" cx="38.749" cy="41.952" rx="0.241" ry="0.531"/>
			<path fill="#F0F0F0" d="M36.012,52.27c0,0,0.64,0.09,0.847-0.005c0,0,0.222-0.075,0.224-0.008
				c0.005,0.069,0.078,0.214-0.218,0.25c0,0,0.206,0.249,0.857,0.125c0,0,0.231,0.334-0.016,0.531
				c-0.247,0.195-0.681,0.406-2.023-0.075c0,0,0.287-0.793,0.246-0.861L36.012,52.27z"/>
			<path fill="#FFFFFF" d="M38.014,52.479c0,0-0.557,0.053-0.746-0.056c0,0-0.197-0.086-0.195-0.016
				c0,0.068-0.058,0.211,0.207,0.263c0,0-0.168,0.239-0.749,0.077c0,0-0.185,0.32,0.046,0.534c0.229,0.213,0.622,0.445,1.775,0.041
				c0,0-0.3-0.816-0.266-0.88L38.014,52.479z"/>
			<path fill="#8ACE9C" d="M33.912,44.954c0,0-0.828-0.031-1.16,0.697c-0.332,0.73-1.295,5.507-0.829,5.839
				c0.464,0.332,3.054,1.526,4.014,1.66l0.331-0.73c0,0-2.654-1.925-2.654-2.157C33.613,50.031,34.243,45.317,33.912,44.954z"/>
			<path fill="#8ACE9C" d="M40.295,45.088c0,0,0.827-0.033,1.16,0.695c0.33,0.731,1.294,5.508,0.827,5.841
				c-0.464,0.332-3.052,1.526-4.015,1.658l-0.329-0.729c0,0,2.652-1.924,2.652-2.155C40.591,50.165,39.964,45.454,40.295,45.088z"/>
			<path fill="#8ACE9C" d="M35.332,41.342c0,0-0.099-1.093,0.267-1.143c0.364-0.048,1.358,0.461,2.769-0.023
				c0,0,0.316,0.096,0.316,1.166l0.022,0.146c0,0,0.147-0.123,0.244,0.095l0.071-1.431c0,0-0.85-1.87-3.229-0.828
				c0,0-0.679,0.269-0.729,0.948l-0.071,1.216C34.992,41.487,35.209,41.219,35.332,41.342z"/>
		</g>
		<path fill="#FFFFFF" d="M20.775,18.424c-0.146,0.1-0.119,0.392,0.061,0.657l0,0c0.178,0.263,0.44,0.399,0.584,0.301l12.494-8.435
			c0.146-0.096,0.12-0.39-0.06-0.655l0,0c-0.178-0.265-0.439-0.399-0.586-0.3L20.775,18.424z"/>
		<path fill="#FFFFFF" d="M31.097,48.429c0.145,0.098,0.119,0.392-0.059,0.654l0,0c-0.18,0.265-0.442,0.4-0.588,0.302l-12.494-8.433
			c-0.146-0.099-0.119-0.391,0.06-0.656l0,0c0.18-0.263,0.442-0.398,0.585-0.3L31.097,48.429z"/>
		<path fill="#FFFFFF" d="M27.628,30.152c-0.176,0-0.316,0.259-0.316,0.577l0,0c0,0.32,0.144,0.578,0.318,0.577l15.075-0.027
			c0.174,0,0.316-0.26,0.316-0.578l0,0c0-0.319-0.143-0.577-0.318-0.577L27.628,30.152z"/>
	</g>
</g>
</svg>
