<?xml version="1.0" encoding="utf-8"?>
<!-- Generator: Adobe Illustrator 16.0.0, SVG Export Plug-In . SVG Version: 6.00 Build 0)  -->
<!DOCTYPE svg PUBLIC "-//W3C//DTD SVG 1.1//EN" "http://www.w3.org/Graphics/SVG/1.1/DTD/svg11.dtd">
<svg version="1.1" id="Capa_1" xmlns="http://www.w3.org/2000/svg" xmlns:xlink="http://www.w3.org/1999/xlink" x="0px" y="0px"
	 width="47.656px" height="51.366px" viewBox="0 0 47.656 51.366" enable-background="new 0 0 47.656 51.366" xml:space="preserve">
<path fill="#DAB967" d="M20.06,5.932L9.54,31.279c0,0,8.966-1.766,10.591,0.705L20.06,5.932z"/>
<path opacity="0.6" fill="#DAB967" d="M20.06,5.932L9.54,31.279c0,0,8.966-1.766,10.591,0.705L20.06,5.932z"/>
<path fill="#DAB967" d="M20.825,1.765c0,0,24.5,11.298,26.831,30.291c0,0-22.667-2.188-27.043,3.813L20.825,1.765z"/>
<path fill="#FFFFFF" d="M21.178,41.658c0,0.233-0.188,0.425-0.423,0.425l0,0c-0.235,0-0.423-0.191-0.423-0.425V0.423
	C20.332,0.188,20.52,0,20.755,0l0,0c0.234,0,0.423,0.188,0.423,0.423V41.658z"/>
<path fill="#99BEC7" d="M11.771,38.076c0,0.427-0.516,0.773-1.155,0.773H2.497c-0.639,0-1.155-0.347-1.155-0.773V35.23
	c0-0.427,0.517-0.773,1.155-0.773h8.118c0.64,0,1.155,0.347,1.155,0.773V38.076z"/>
<path fill="#99BEC7" d="M0,38.691l6.071,11.58c0,0,22.03,5.014,32.127-6.425l5.295-6.354L0,38.691z"/>
<path fill="#99BEC7" d="M11.771,38.076c0,0.427-0.516,0.773-1.155,0.773H2.497c-0.639,0-1.155-0.347-1.155-0.773V35.23
	c0-0.427,0.517-0.773,1.155-0.773h8.118c0.64,0,1.155,0.347,1.155,0.773V38.076z"/>
<path fill="#99BEC7" d="M0,38.691l6.071,11.58c0,0,22.03,5.014,32.127-6.425l5.295-6.354L0,38.691z"/>
<path fill="#99BEC7" d="M11.771,38.076c0,0.427-0.516,0.773-1.155,0.773H2.497c-0.639,0-1.155-0.347-1.155-0.773V35.23
	c0-0.427,0.517-0.773,1.155-0.773h8.118c0.64,0,1.155,0.347,1.155,0.773V38.076z"/>
<path fill="#99BEC7" d="M0,38.691l6.071,11.58c0,0,22.03,5.014,32.127-6.425l5.295-6.354L0,38.691z"/>
<path fill="#99BEC7" d="M11.771,38.076c0,0.427-0.516,0.773-1.155,0.773H2.497c-0.639,0-1.155-0.347-1.155-0.773V35.23
	c0-0.427,0.517-0.773,1.155-0.773h8.118c0.64,0,1.155,0.347,1.155,0.773V38.076z"/>
<path fill="#99BEC7" d="M0,38.691l6.071,11.58c0,0,22.03,5.014,32.127-6.425l5.295-6.354L0,38.691z"/>
<path fill="#99BEC7" d="M11.771,38.076c0,0.427-0.516,0.773-1.155,0.773H2.497c-0.639,0-1.155-0.347-1.155-0.773V35.23
	c0-0.427,0.517-0.773,1.155-0.773h8.118c0.64,0,1.155,0.347,1.155,0.773V38.076z"/>
<path fill="#99BEC7" d="M0,38.691l6.071,11.58c0,0,22.03,5.014,32.127-6.425l5.295-6.354L0,38.691z"/>
<path fill="#99BEC7" d="M20.809,38.118L0,38.691l6.071,11.58c0,0,6.895,1.568,14.737,0.949V38.118z"/>
<circle fill="#FFFFFF" cx="3.848" cy="36.681" r="1.165"/>
<circle fill="#FFFFFF" cx="8.755" cy="36.681" r="1.166"/>
<circle fill="#FFFFFF" cx="7.307" cy="40.882" r="1.165"/>
<circle fill="#FFFFFF" cx="15.427" cy="40.882" r="1.165"/>
<circle fill="#FFFFFF" cx="24.041" cy="40.882" r="1.165"/>
<circle fill="#FFFFFF" cx="33.291" cy="40.882" r="1.165"/>
<path fill="#C86F3E" d="M19.847,0.423l-3.741,0.353c0,0,3.741,1.906,3.671,2.471C19.707,3.813,19.847,0.423,19.847,0.423z"/>
</svg>
