<?xml version="1.0" encoding="utf-8"?>
<!-- Generator: Adobe Illustrator 16.0.0, SVG Export Plug-In . SVG Version: 6.00 Build 0)  -->
<!DOCTYPE svg PUBLIC "-//W3C//DTD SVG 1.1//EN" "http://www.w3.org/Graphics/SVG/1.1/DTD/svg11.dtd">
<svg version="1.1" id="Capa_1" xmlns="http://www.w3.org/2000/svg" xmlns:xlink="http://www.w3.org/1999/xlink" x="0px" y="0px"
	 width="90px" height="97px" viewBox="0 0 90 97" enable-background="new 0 0 90 97" xml:space="preserve">
<g>
	<path fill="#ED7235" d="M37.882,11.203L18.016,59.067c0,0,16.934-3.332,20.003,1.332L37.882,11.203z"/>
	<path fill="#E34C1C" d="M37.882,11.203L18.016,59.067c0,0,16.934-3.332,20.003,1.332L37.882,11.203z"/>
	<path fill="#ED7235" d="M39.33,3.334c0,0,46.27,21.333,50.67,57.199c0,0-42.803-4.132-51.069,7.201L39.33,3.334z"/>
	<path fill="#FFFFFF" d="M39.996,78.667c0,0.441-0.358,0.8-0.8,0.8l0,0c-0.443,0-0.8-0.358-0.8-0.8V0.801
		c0-0.442,0.356-0.801,0.8-0.801l0,0c0.441,0,0.8,0.358,0.8,0.801V78.667z"/>
	<path fill="#8BC7D1" d="M22.232,71.903c0,0.808-0.979,1.462-2.184,1.462H4.72c-1.208,0-2.187-0.654-2.187-1.462v-5.375
		c0-0.807,0.979-1.461,2.187-1.461h15.329c1.205,0,2.184,0.654,2.184,1.461V71.903z"/>
	<path fill="#8BC7D1" d="M0,73.065l11.468,21.869c0,0,41.604,9.466,60.671-12.133l10-12.001L0,73.065z"/>
	<path fill="#8BC7D1" d="M22.232,71.903c0,0.808-0.979,1.462-2.184,1.462H4.72c-1.208,0-2.187-0.654-2.187-1.462v-5.375
		c0-0.807,0.979-1.461,2.187-1.461h15.329c1.205,0,2.184,0.654,2.184,1.461V71.903z"/>
	<path fill="#8BC7D1" d="M0,73.065l11.468,21.869c0,0,41.604,9.466,60.671-12.133l10-12.001L0,73.065z"/>
	<path fill="#8BC7D1" d="M22.232,71.903c0,0.808-0.979,1.462-2.184,1.462H4.72c-1.208,0-2.187-0.654-2.187-1.462v-5.375
		c0-0.807,0.979-1.461,2.187-1.461h15.329c1.205,0,2.184,0.654,2.184,1.461V71.903z"/>
	<path fill="#8BC7D1" d="M0,73.065l11.468,21.869c0,0,41.604,9.466,60.671-12.133l10-12.001L0,73.065z"/>
	<path fill="#8BC7D1" d="M22.232,71.903c0,0.808-0.979,1.462-2.184,1.462H4.72c-1.208,0-2.187-0.654-2.187-1.462v-5.375
		c0-0.807,0.979-1.461,2.187-1.461h15.329c1.205,0,2.184,0.654,2.184,1.461V71.903z"/>
	<path fill="#8BC7D1" d="M0,73.065l11.468,21.869c0,0,41.604,9.466,60.671-12.133l10-12.001L0,73.065z"/>
	<path fill="#0C495E" d="M22.232,71.903c0,0.808-0.979,1.462-2.184,1.462H4.72c-1.208,0-2.187-0.654-2.187-1.462v-5.375
		c0-0.807,0.979-1.461,2.187-1.461h15.329c1.205,0,2.184,0.654,2.184,1.461V71.903z"/>
	<path fill="#0C495E" d="M0,73.065l11.468,21.869c0,0,41.604,9.466,60.671-12.133l10-12.001L0,73.065z"/>
	<path fill="#07394D" d="M39.411,71.98L0,73.065l11.468,21.869c0,0,13.085,2.976,27.943,1.78V71.98z"/>
	<path fill="#FFFFFF" d="M9.469,69.267c0,1.215-0.987,2.202-2.202,2.202s-2.198-0.987-2.198-2.202c0-1.213,0.983-2.2,2.198-2.2
		S9.469,68.054,9.469,69.267z"/>
	<path fill="#FFFFFF" d="M18.734,69.267c0,1.215-0.983,2.202-2.2,2.202c-1.215,0-2.198-0.987-2.198-2.202
		c0-1.213,0.983-2.2,2.198-2.2C17.751,67.066,18.734,68.054,18.734,69.267z"/>
	<path fill="#FFFFFF" d="M16.002,77.202c0,1.213-0.987,2.198-2.202,2.198s-2.2-0.985-2.2-2.198c0-1.218,0.985-2.202,2.2-2.202
		S16.002,75.984,16.002,77.202z"/>
	<path fill="#FFFFFF" d="M31.335,77.202c0,1.213-0.985,2.198-2.2,2.198c-1.214,0-2.2-0.985-2.2-2.198c0-1.218,0.986-2.202,2.2-2.202
		C30.35,75,31.335,75.984,31.335,77.202z"/>
	<path fill="#FFFFFF" d="M47.603,77.202c0,1.213-0.984,2.198-2.199,2.198c-1.216,0-2.201-0.985-2.201-2.198
		c0-1.218,0.985-2.202,2.201-2.202C46.618,75,47.603,75.984,47.603,77.202z"/>
	<path fill="#FFFFFF" d="M65.071,77.202c0,1.213-0.985,2.198-2.201,2.198c-1.215,0-2.2-0.985-2.2-2.198
		c0-1.218,0.985-2.202,2.2-2.202C64.086,75,65.071,75.984,65.071,77.202z"/>
	<path fill="#ED7235" d="M37.482,0.801l-7.065,0.666c0,0,7.065,3.601,6.934,4.668C37.217,7.2,37.482,0.801,37.482,0.801z"/>
</g>
</svg>
