<?xml version="1.0" encoding="utf-8"?>
<!-- Generator: Adobe Illustrator 16.0.0, SVG Export Plug-In . SVG Version: 6.00 Build 0)  -->
<!DOCTYPE svg PUBLIC "-//W3C//DTD SVG 1.1//EN" "http://www.w3.org/Graphics/SVG/1.1/DTD/svg11.dtd">
<svg version="1.1" id="Capa_1" xmlns="http://www.w3.org/2000/svg" xmlns:xlink="http://www.w3.org/1999/xlink" x="0px" y="0px"
	 width="44px" height="44px" viewBox="0 0 44 44" enable-background="new 0 0 44 44" xml:space="preserve">
<path fill="#3B3B3A" d="M28.446,27.4c-0.727,0-2.225,0-3.098,0c0.05,0.292,0.082,0.618,0.082,0.967v2.218
	c0,1.235-0.371,2.233-0.838,2.233h-5.025c-0.472,0-0.838-0.998-0.838-2.233v-2.218c0-0.342,0.03-0.667,0.081-0.955
	c-1.187,0.003-2.301,0.005-3.251,0.005c-3.545,0.006-4.996-2.133-3.231-4.752c1.768-2.62,4.661-6.904,6.431-9.521
	c1.77-2.614,4.671-2.617,6.446-0.005c1.777,2.608,4.685,6.888,6.459,9.5C33.438,25.253,31.991,27.394,28.446,27.4z"/>
</svg>
